<svg width="80" height="80" viewBox="0 0 80 80" fill="none" xmlns="http://www.w3.org/2000/svg">
<rect width="80" height="80" rx="40" fill="#FFF5E0"/>
<g clip-path="url(#clip0_990_37281)">
<path d="M31.819 50.9995C31.2203 48.4534 28.5194 46.3713 27.4108 44.9992C25.5125 42.6457 24.3228 39.8079 23.9787 36.8128C23.6347 33.8176 24.1503 30.787 25.4662 28.0699C26.7822 25.3529 28.8448 23.0599 31.4166 21.4553C33.9884 19.8506 36.9646 18.9995 40.0026 19C43.0405 19.0005 46.0165 19.8525 48.5878 21.458C51.1591 23.0635 53.221 25.3571 54.536 28.0745C55.851 30.792 56.3657 33.8228 56.0207 36.8179C55.6757 39.8129 54.485 42.6503 52.586 45.0032C51.4774 46.3733 48.7805 48.4554 48.1818 50.9995H31.819ZM48.0629 54.9997V56.9998C48.0629 58.0607 47.6382 59.0782 46.8822 59.8284C46.1262 60.5786 45.1008 61 44.0316 61H35.9692C34.9 61 33.8746 60.5786 33.1186 59.8284C32.3626 59.0782 31.9379 58.0607 31.9379 56.9998V54.9997H48.0629ZM42.016 35.0088V26.9984L32.9457 39.009H37.9848V47.0093L47.0551 35.0088H42.016Z" fill="#FFB728"/>
</g>
<defs>
<clipPath id="clip0_990_37281">
<rect width="48" height="48" fill="white" transform="translate(16 16)"/>
</clipPath>
</defs>
</svg>
