<svg width="80" height="80" viewBox="0 0 80 80" fill="none" xmlns="http://www.w3.org/2000/svg">
<rect width="80" height="80" rx="40" fill="#FDF0F1"/>
<g clip-path="url(#clip0_990_37315)">
<path d="M51.4012 38.4939C54.1996 41.3866 54.1996 46.0805 51.4012 48.975L41.2666 59.458C40.5679 60.1807 39.4321 60.1807 38.7334 59.458L28.5988 48.975C25.8004 46.0805 25.8004 41.3866 28.5988 38.492C31.3971 35.5975 35.935 35.5975 38.7334 38.492L39.9982 39.8022L41.2666 38.492C44.065 35.5975 48.6029 35.5994 51.4012 38.4939ZM40 20C43.9593 20 47.1661 23.317 47.1661 27.4124C47.1661 31.5077 43.9593 34.8248 40 34.8248C36.0407 34.8248 32.8339 31.5077 32.8339 27.4124C32.8339 23.317 36.0407 20 40 20Z" fill="#E0293B"/>
</g>
<defs>
<clipPath id="clip0_990_37315">
<rect width="48" height="48" fill="white" transform="translate(16 16)"/>
</clipPath>
</defs>
</svg>
