<svg width="20" height="20" viewBox="0 0 20 20" fill="none" xmlns="http://www.w3.org/2000/svg">
<g filter="url(#filter0_d_990_37255)">
<path d="M6.99741 14.7116L3.78125 3.42927C3.54587 2.60355 4.40349 1.89052 5.18332 2.26359L15.8385 7.361C16.6416 7.74516 16.5812 8.89773 15.7425 9.1949L11.5662 10.6746C11.3406 10.7546 11.1514 10.9119 11.0328 11.1181L8.83683 14.9363C8.39583 15.7031 7.23979 15.5619 6.99741 14.7116Z" fill="#F04935"/>
<path d="M3.29796 3.56391L6.51411 14.8462C6.87768 16.1216 8.61175 16.3335 9.27325 15.1833L11.4692 11.3651C11.5285 11.262 11.6231 11.1834 11.7359 11.1434L15.9122 9.66364C17.1703 9.21789 17.2608 7.48903 16.0563 6.91279L5.40106 1.81538C4.23132 1.25578 2.94488 2.32532 3.29796 3.56391Z" stroke="#F04935"/>
</g>
<defs>
<filter id="filter0_d_990_37255" x="0.735352" y="0.163818" width="18.6768" height="19.27" filterUnits="userSpaceOnUse" color-interpolation-filters="sRGB">
<feFlood flood-opacity="0" result="BackgroundImageFix"/>
<feColorMatrix in="SourceAlpha" type="matrix" values="0 0 0 0 0 0 0 0 0 0 0 0 0 0 0 0 0 0 127 0" result="hardAlpha"/>
<feOffset dy="1"/>
<feGaussianBlur stdDeviation="1"/>
<feComposite in2="hardAlpha" operator="out"/>
<feColorMatrix type="matrix" values="0 0 0 0 0 0 0 0 0 0 0 0 0 0 0 0 0 0 0.08 0"/>
<feBlend mode="normal" in2="BackgroundImageFix" result="effect1_dropShadow_990_37255"/>
<feBlend mode="normal" in="SourceGraphic" in2="effect1_dropShadow_990_37255" result="shape"/>
</filter>
</defs>
</svg>
