<svg width="80" height="80" viewBox="0 0 80 80" fill="none" xmlns="http://www.w3.org/2000/svg">
<rect width="80" height="80" rx="40" fill="#F2F0FE"/>
<circle cx="29" cy="29" r="9" fill="#4633F0"/>
<rect x="43" y="43" width="16" height="16" rx="1" fill="#4633F0"/>
<path d="M50.1164 20.6694C50.4921 19.9599 51.5084 19.9599 51.884 20.6694L59.2229 34.5321C59.5755 35.1981 59.0927 36 58.3391 36H43.6609C42.9073 36 42.4245 35.1981 42.7771 34.5321L50.1164 20.6694Z" fill="#4633F0"/>
<path d="M28.2929 42.7071C28.6834 42.3166 29.3166 42.3166 29.7071 42.7071L37.2929 50.2929C37.6834 50.6834 37.6834 51.3166 37.2929 51.7071L29.7071 59.2929C29.3166 59.6834 28.6834 59.6834 28.2929 59.2929L20.7071 51.7071C20.3166 51.3166 20.3166 50.6834 20.7071 50.2929L28.2929 42.7071Z" fill="#4633F0"/>
</svg>
