<svg width="40" height="40" viewBox="0 0 40 40" fill="none" xmlns="http://www.w3.org/2000/svg">
<g id="Gift " clip-path="url(#clip0_990_37239)">
<g id="Group">
<path id="Vector" d="M24.9998 3.33351C26.1703 3.33336 27.3202 3.6576 28.3339 4.27362C29.3475 4.88964 30.1893 5.77573 30.7744 6.84279C31.3596 7.90986 31.6675 9.12028 31.6673 10.3524C31.6671 11.5844 31.3587 12.7947 30.7732 13.8616L38.3332 13.8598V17.3686H34.9998V34.9124C34.9998 35.3777 34.8242 35.824 34.5117 36.153C34.1991 36.482 33.7752 36.6668 33.3332 36.6668H6.6665C6.22448 36.6668 5.80055 36.482 5.48799 36.153C5.17543 35.824 4.99984 35.3777 4.99984 34.9124V17.3686H1.6665V13.8598L9.2265 13.8616C8.39961 12.3544 8.13432 10.5775 8.48214 8.87591C8.82997 7.17436 9.76608 5.66959 11.1087 4.65377C12.4514 3.63796 14.1047 3.18359 15.7478 3.37891C17.3908 3.57422 18.9062 4.40528 19.9998 5.7107C20.6242 4.96225 21.3933 4.36293 22.2556 3.95294C23.118 3.54295 24.0536 3.33175 24.9998 3.33351ZM21.6665 17.3686H18.3332V34.9124H21.6665V17.3686ZM14.9998 6.84228C14.1349 6.8382 13.3023 7.18822 12.6779 7.81838C12.0536 8.44854 11.6864 9.3095 11.6539 10.2194C11.6215 11.1292 11.9263 12.0167 12.504 12.6944C13.0817 13.3721 13.887 13.7868 14.7498 13.851L14.9998 13.8598H18.3332V10.351C18.3332 9.51256 18.048 8.70178 17.5292 8.06554C17.0103 7.42929 16.2922 7.00966 15.5048 6.88263L15.2482 6.85105L14.9998 6.84228ZM24.9998 6.84228C24.1589 6.842 23.3489 7.17632 22.7323 7.77824C22.1156 8.38015 21.7379 9.20516 21.6748 10.0879L21.6665 10.351V13.8598H24.9998C25.8408 13.8601 26.6508 13.5258 27.2674 12.9239C27.8841 12.3219 28.2618 11.4969 28.3248 10.6142L28.3332 10.351C28.3332 9.42046 27.982 8.52799 27.3569 7.86997C26.7317 7.21195 25.8839 6.84228 24.9998 6.84228Z" fill="#F04935"/>
</g>
</g>
<defs>
<clipPath id="clip0_990_37239">
<rect width="40" height="40" fill="white"/>
</clipPath>
</defs>
</svg>
