<svg width="36" height="36" viewBox="0 0 36 36" fill="none" xmlns="http://www.w3.org/2000/svg">
<circle cx="18" cy="18" r="17" fill="#F7F7F7" stroke="white" stroke-width="2"/>
<g clip-path="url(#clip0_873_12158)">
<path d="M23.2792 23.2825H21.0583V19.8017C21.0583 18.9717 21.0417 17.9033 19.9 17.9033C18.7425 17.9033 18.5658 18.8067 18.5658 19.7408V23.2825H16.3442V16.125H18.4775V17.1H18.5067C18.805 16.5383 19.53 15.9442 20.6133 15.9442C22.8633 15.9442 23.28 17.4258 23.28 19.3533V23.2825H23.2792ZM13.8358 15.1458C13.6663 15.1461 13.4984 15.1128 13.3417 15.048C13.1851 14.9832 13.0427 14.8881 12.9229 14.7682C12.803 14.6483 12.708 14.5059 12.6433 14.3492C12.5786 14.1925 12.5455 14.0245 12.5458 13.855C12.546 13.5999 12.6218 13.3505 12.7637 13.1385C12.9056 12.9264 13.1072 12.7612 13.3429 12.6637C13.5787 12.5662 13.8381 12.5408 14.0883 12.5908C14.3385 12.6407 14.5683 12.7637 14.7486 12.9443C14.9289 13.1248 15.0516 13.3547 15.1012 13.605C15.1508 13.8553 15.1251 14.1146 15.0273 14.3503C14.9295 14.5859 14.7641 14.7873 14.5518 14.9289C14.3396 15.0705 14.0901 15.146 13.835 15.1458H13.8358ZM14.9492 23.2825H12.7217V16.125H14.95V23.2825H14.9492ZM24.3917 10.5H11.6075C10.9942 10.5 10.5 10.9833 10.5 11.5808V24.4192C10.5 25.0167 10.995 25.5 11.6067 25.5H24.3883C25 25.5 25.5 25.0167 25.5 24.4192V11.5808C25.5 10.9833 25 10.5 24.3883 10.5H24.3908H24.3917Z" fill="#0A66C2"/>
</g>
<defs>
<clipPath id="clip0_873_12158">
<rect width="20" height="20" fill="white" transform="translate(8 8)"/>
</clipPath>
</defs>
</svg>
