<svg width="20" height="20" viewBox="0 0 20 20" fill="none" xmlns="http://www.w3.org/2000/svg">
<g id="Map Pin 2" clip-path="url(#clip0_990_37210)">
<g id="Group">
<path id="Vector" d="M15.3033 13.75L10 19.0534L4.69667 13.75C3.64779 12.7011 2.93349 11.3648 2.64411 9.90992C2.35473 8.45507 2.50326 6.94707 3.07092 5.57663C3.63858 4.20619 4.59987 3.03486 5.83324 2.21075C7.0666 1.38664 8.51665 0.946777 10 0.946777C11.4834 0.946777 12.9334 1.38664 14.1668 2.21075C15.4001 3.03486 16.3614 4.20619 16.9291 5.57663C17.4968 6.94707 17.6453 8.45507 17.3559 9.90992C17.0665 11.3648 16.3522 12.7011 15.3033 13.75ZM10 10.1134C10.442 10.1134 10.866 9.93778 11.1785 9.62522C11.4911 9.31266 11.6667 8.88874 11.6667 8.44671C11.6667 8.00468 11.4911 7.58076 11.1785 7.2682C10.866 6.95564 10.442 6.78005 10 6.78005C9.55798 6.78005 9.13405 6.95564 8.82149 7.2682C8.50893 7.58076 8.33334 8.00468 8.33334 8.44671C8.33334 8.88874 8.50893 9.31266 8.82149 9.62522C9.13405 9.93778 9.55798 10.1134 10 10.1134Z" fill="#8D8D8F"/>
</g>
</g>
<defs>
<clipPath id="clip0_990_37210">
<rect width="20" height="20" fill="white"/>
</clipPath>
</defs>
</svg>
