<svg width="20" height="20" viewBox="0 0 20 20" fill="none" xmlns="http://www.w3.org/2000/svg">
<g filter="url(#filter0_d_990_37270)">
<path d="M6.99741 3.28646L3.78125 14.5688C3.54587 15.3945 4.40349 16.1075 5.18332 15.7345L15.8385 10.637C16.6416 10.2529 16.5812 9.10031 15.7425 8.80315L11.5662 7.3234C11.3406 7.24347 11.1514 7.08618 11.0328 6.87994L8.83683 3.06171C8.39583 2.29493 7.23979 2.43619 6.99741 3.28646Z" fill="#1E88E5"/>
<path d="M3.29796 14.4341L6.51411 3.15183C6.87768 1.87642 8.61175 1.66453 9.27325 2.8147L11.4692 6.63293C11.5285 6.73605 11.6231 6.81469 11.7359 6.85466L15.9122 8.33441C17.1703 8.78016 17.2608 10.509 16.0563 11.0853L5.40106 16.1827C4.23132 16.7423 2.94488 15.6727 3.29796 14.4341Z" stroke="#1E88E5"/>
</g>
<defs>
<filter id="filter0_d_990_37270" x="0.735352" y="0.564209" width="18.6768" height="19.27" filterUnits="userSpaceOnUse" color-interpolation-filters="sRGB">
<feFlood flood-opacity="0" result="BackgroundImageFix"/>
<feColorMatrix in="SourceAlpha" type="matrix" values="0 0 0 0 0 0 0 0 0 0 0 0 0 0 0 0 0 0 127 0" result="hardAlpha"/>
<feOffset dy="1"/>
<feGaussianBlur stdDeviation="1"/>
<feComposite in2="hardAlpha" operator="out"/>
<feColorMatrix type="matrix" values="0 0 0 0 0 0 0 0 0 0 0 0 0 0 0 0 0 0 0.08 0"/>
<feBlend mode="normal" in2="BackgroundImageFix" result="effect1_dropShadow_990_37270"/>
<feBlend mode="normal" in="SourceGraphic" in2="effect1_dropShadow_990_37270" result="shape"/>
</filter>
</defs>
</svg>
