<svg width="51" height="50" viewBox="0 0 51 50" fill="none" xmlns="http://www.w3.org/2000/svg">
<g clip-path="url(#clip0_990_37245)">
<path d="M23.6382 42.4181C23.6449 43.6296 26.3965 43.6301 35.3652 42.4575C44.858 41.21 46.8955 40.5839 46.3973 39.2035C45.6895 37.3128 23.6772 40.4601 23.6382 42.4181Z" fill="#F04935"/>
<path d="M15.7418 6.05344C12.4385 6.2131 12.0547 6.80367 10.4234 14.2077C8.73052 21.853 8.69355 23.3167 10.1006 23.7889C12.6552 24.6347 13.7527 22.7702 16.3184 13.4302C18.2073 6.53809 18.1798 5.93559 15.7418 6.05344Z" fill="#F04935"/>
<path d="M35.396 14.8872C32.8849 14.9994 32.0018 15.5478 29.2278 18.6749C21.035 27.9823 14.4374 33.9822 19.3206 33.6665C21.3146 33.551 23.0178 31.9775 32.9665 21.4083C38.4383 15.5398 38.7566 14.759 35.396 14.8872Z" fill="#F04935"/>
</g>
<defs>
<clipPath id="clip0_990_37245">
<rect width="51" height="50" fill="white"/>
</clipPath>
</defs>
</svg>
