<svg width="40" height="40" viewBox="0 0 40 40" fill="none" xmlns="http://www.w3.org/2000/svg">
<g id="Restaurant " clip-path="url(#clip0_990_37229)">
<g id="Group">
<path id="Vector" d="M35 3.3335V36.6668H31.6667V23.3335H26.6667V11.6668C26.6667 9.45669 27.5446 7.33708 29.1074 5.77427C30.6702 4.21147 32.7899 3.3335 35 3.3335ZM15 23.1668V36.6668H11.6667V23.1668C9.78468 22.782 8.09332 21.7591 6.87857 20.2711C5.66383 18.783 5.00024 16.9211 5 15.0002V5.00016H8.33333V16.6668H11.6667V5.00016H15V16.6668H18.3333V5.00016H21.6667V15.0002C21.6664 16.9211 21.0028 18.783 19.7881 20.2711C18.5733 21.7591 16.882 22.782 15 23.1668Z" fill="#F04935"/>
</g>
</g>
<defs>
<clipPath id="clip0_990_37229">
<rect width="40" height="40" fill="white"/>
</clipPath>
</defs>
</svg>
