<svg width="80" height="80" viewBox="0 0 80 80" fill="none" xmlns="http://www.w3.org/2000/svg">
<rect width="80" height="80" rx="40" fill="#EFF7FD"/>
<g clip-path="url(#clip0_990_37292)">
<path d="M25.392 23.32L40 20L54.608 23.32C55.0028 23.4098 55.3558 23.6345 55.6089 23.9571C55.862 24.2797 55.9999 24.6809 56 25.0945V43.2527C55.9999 45.0486 55.5662 46.8167 54.7376 48.4C53.9089 49.9834 52.7109 51.333 51.2498 52.3291L40 60L28.7502 52.3291C27.2894 51.3331 26.0915 49.9838 25.2628 48.4008C24.4342 46.8178 24.0004 45.0501 24 43.2545V25.0945C24.0001 24.6809 24.138 24.2797 24.3911 23.9571C24.6442 23.6345 24.9972 23.4098 25.392 23.32ZM40 38.1818C41.1787 38.1818 42.3092 37.7029 43.1427 36.8505C43.9762 35.998 44.4444 34.8419 44.4444 33.6364C44.4444 32.4308 43.9762 31.2747 43.1427 30.4222C42.3092 29.5698 41.1787 29.0909 40 29.0909C38.8213 29.0909 37.6908 29.5698 36.8573 30.4222C36.0238 31.2747 35.5556 32.4308 35.5556 33.6364C35.5556 34.8419 36.0238 35.998 36.8573 36.8505C37.6908 37.7029 38.8213 38.1818 40 38.1818ZM32.048 47.2727H47.952C47.7365 45.2698 46.8059 43.4187 45.3385 42.074C43.8712 40.7294 41.9702 39.9858 40 39.9858C38.0298 39.9858 36.1288 40.7294 34.6615 42.074C33.1941 43.4187 32.2635 45.2698 32.048 47.2727Z" fill="#1E88E5"/>
</g>
<defs>
<clipPath id="clip0_990_37292">
<rect width="48" height="48" fill="white" transform="translate(16 16)"/>
</clipPath>
</defs>
</svg>
