<svg width="80" height="80" viewBox="0 0 80 80" fill="none" xmlns="http://www.w3.org/2000/svg">
<rect width="80" height="80" rx="40" fill="#D6EED4"/>
<g clip-path="url(#clip0_990_37339)">
<path d="M39.999 37.9993C42.6512 37.9993 45.1947 39.0528 47.0701 40.9282C48.9455 42.8036 49.999 45.3471 49.999 47.9993V59.9993H29.999V47.9993C29.999 45.3471 31.0526 42.8036 32.928 40.9282C34.8033 39.0528 37.3469 37.9993 39.999 37.9993ZM26.575 44.0113C26.2567 45.0848 26.0687 46.1928 26.015 47.3113L25.999 47.9993V59.9993H19.999V50.9993C19.9986 49.2744 20.6351 47.6101 21.7863 46.3257C22.9375 45.0412 24.5224 44.227 26.237 44.0393L26.575 44.0113ZM53.423 44.0113C55.2028 44.1197 56.8742 44.9032 58.0962 46.2017C59.3182 47.5003 59.9988 49.2161 59.999 50.9993V59.9993H53.999V47.9993C53.999 46.6133 53.799 45.2753 53.423 44.0113ZM26.999 31.9993C28.3251 31.9993 29.5969 32.5261 30.5346 33.4637C31.4722 34.4014 31.999 35.6732 31.999 36.9993C31.999 38.3253 31.4722 39.5971 30.5346 40.5348C29.5969 41.4725 28.3251 41.9993 26.999 41.9993C25.6729 41.9993 24.4012 41.4725 23.4635 40.5348C22.5258 39.5971 21.999 38.3253 21.999 36.9993C21.999 35.6732 22.5258 34.4014 23.4635 33.4637C24.4012 32.5261 25.6729 31.9993 26.999 31.9993ZM52.999 31.9993C54.3251 31.9993 55.5969 32.5261 56.5346 33.4637C57.4722 34.4014 57.999 35.6732 57.999 36.9993C57.999 38.3253 57.4722 39.5971 56.5346 40.5348C55.5969 41.4725 54.3251 41.9993 52.999 41.9993C51.6729 41.9993 50.4012 41.4725 49.4635 40.5348C48.5258 39.5971 47.999 38.3253 47.999 36.9993C47.999 35.6732 48.5258 34.4014 49.4635 33.4637C50.4012 32.5261 51.6729 31.9993 52.999 31.9993ZM39.999 19.9993C42.1208 19.9993 44.1556 20.8421 45.6559 22.3424C47.1562 23.8427 47.999 25.8775 47.999 27.9993C47.999 30.121 47.1562 32.1558 45.6559 33.6561C44.1556 35.1564 42.1208 35.9993 39.999 35.9993C37.8773 35.9993 35.8425 35.1564 34.3422 33.6561C32.8419 32.1558 31.999 30.121 31.999 27.9993C31.999 25.8775 32.8419 23.8427 34.3422 22.3424C35.8425 20.8421 37.8773 19.9993 39.999 19.9993Z" fill="#48A43F"/>
</g>
<defs>
<clipPath id="clip0_990_37339">
<rect width="48" height="48" fill="white" transform="translate(16 16)"/>
</clipPath>
</defs>
</svg>
