<svg width="40" height="40" viewBox="0 0 40 40" fill="none" xmlns="http://www.w3.org/2000/svg">
<g id="Wallet" clip-path="url(#clip0_990_37224)">
<g id="Group">
<path id="Vector" d="M3.3335 15H35.0002C35.4422 15 35.8661 15.1756 36.1787 15.4882C36.4912 15.8007 36.6668 16.2246 36.6668 16.6667V33.3333C36.6668 33.7754 36.4912 34.1993 36.1787 34.5118C35.8661 34.8244 35.4422 35 35.0002 35H5.00016C4.55814 35 4.13421 34.8244 3.82165 34.5118C3.50909 34.1993 3.3335 33.7754 3.3335 33.3333V15ZM5.00016 5H30.0002V11.6667H3.3335V6.66667C3.3335 6.22464 3.50909 5.80072 3.82165 5.48816C4.13421 5.17559 4.55814 5 5.00016 5ZM25.0002 23.3333V26.6667H30.0002V23.3333H25.0002Z" fill="#F04935"/>
</g>
</g>
<defs>
<clipPath id="clip0_990_37224">
<rect width="40" height="40" fill="white"/>
</clipPath>
</defs>
</svg>
