<svg width="1240" height="560" viewBox="0 0 1240 560" fill="none" xmlns="http://www.w3.org/2000/svg">
<g clip-path="url(#clip0_1433_79227)">
<path d="M444.858 192.469H33.6758V603.721H444.858V192.469Z" fill="black"/>
<path d="M-268.896 608.668H921.026V183.166H-268.896V608.668Z" fill="white"/>
<path d="M29.2098 635.656H1943.22C2101.87 579.108 2399.89 272.281 2267.38 237.787C2124.74 200.657 2365.6 82.5837 2145.87 40.9034C2002.4 13.6895 1413.95 170.418 1318.98 111.83C1207.39 42.9941 1022.02 -40.7906 676.783 24.3169C410.515 74.5317 192.553 19.3817 -243.166 48.5282C-467.217 63.5158 -411.171 350.56 -390.279 377.058C-372.084 400.136 -195.557 506.841 -362.856 557.252C-608.177 631.174 23.4268 634.295 29.2098 635.656Z" fill="#DFEEFB"/>
<path d="M140.664 458.998C140.664 458.998 241.179 380.796 300.959 381.047C360.739 381.299 425.86 432.557 510.933 476.333C606.269 525.392 481.783 527.451 474.599 527.855C467.414 528.259 219.537 522.881 215.403 520.233C211.269 517.585 145.085 483.666 145.085 483.666L140.664 458.998Z" fill="#8FC4F2"/>
<path d="M656.414 461.351H660.662V432.434H656.414V461.351Z" fill="#151313"/>
<path d="M658.536 376.336L672.401 445.156H644.671L658.536 376.336Z" fill="#1775C8"/>
<path opacity="0.2" d="M667.38 420.194L647.609 430.606L648.369 426.833L666.766 417.145L667.38 420.194Z" fill="white"/>
<path opacity="0.2" d="M664.338 405.107L652.23 407.65L652.8 404.825L663.814 402.512L664.338 405.107Z" fill="white"/>
<path d="M77.9382 410.434L90.3169 471.874H65.5596L77.9382 410.434Z" fill="#1775C8"/>
<path d="M99.7479 419.459L109.175 466.252H90.3203L99.7479 419.459Z" fill="#1775C8"/>
<path d="M118.602 433.393L128.03 480.186H109.175L118.602 433.393Z" fill="#1775C8"/>
<path d="M54.7751 424.156L67.1538 485.596H42.3965L54.7751 424.156Z" fill="#1775C8"/>
<path d="M101.58 443.265C208.958 454.238 370.076 552.85 492.794 552.85C615.511 552.85 641.935 529.264 687.954 534.251C733.973 539.239 795.752 552.85 795.752 552.85L-116.17 554.505C-116.17 554.505 -5.79751 432.293 101.58 443.265Z" fill="#8FC4F2"/>
<path d="M490.266 414.523L502.645 475.964H477.888L490.266 414.523Z" fill="#1775C8"/>
<path d="M519.748 432.611L529.176 479.404H510.32L519.748 432.611Z" fill="#1775C8"/>
<path d="M445.459 457.59L454.887 504.383H436.031L445.459 457.59Z" fill="#1775C8"/>
<path d="M467.103 428.244L479.482 489.684H454.725L467.103 428.244Z" fill="#1775C8"/>
<path d="M588.286 443.263C480.908 454.236 319.79 552.848 197.073 552.848C74.3557 552.848 47.9311 529.262 1.91218 534.249C-44.1072 539.237 -105.886 552.848 -105.886 552.848L806.036 554.503C806.036 554.503 695.664 432.291 588.286 443.263Z" fill="#8FC4F2"/>
<path d="M551.535 535.326H556.381V502.336H551.535V535.326Z" fill="#151313"/>
<path d="M553.953 438.336L569.771 516.849H538.135L553.953 438.336Z" fill="#1775C8"/>
<path opacity="0.2" d="M564.035 488.371L541.479 500.25L542.347 495.946L563.334 484.893L564.035 488.371Z" fill="white"/>
<path opacity="0.2" d="M560.563 471.165L546.751 474.065L547.4 470.841L559.966 468.203L560.563 471.165Z" fill="white"/>
<path d="M606.291 549.393H610.916V499.633H606.291V549.393Z" fill="#151313"/>
<path d="M607.396 410.918L630.181 511.358H584.611L607.396 410.918Z" fill="#1775C8"/>
<path opacity="0.2" d="M628.735 504.983L587.852 497.068L588.47 494.344L628.06 502.009L628.735 504.983Z" fill="white"/>
<path opacity="0.2" d="M621.528 473.252L594.436 468.007L595.054 465.283L620.853 470.278L621.528 473.252Z" fill="white"/>
<path d="M-116.17 554.504C-116.17 554.504 1.55819 491.698 153.357 487.84C204.331 486.544 413.054 512.519 588.819 532.926C596.207 533.784 612.183 542.183 619.664 543.047C702.872 552.652 780.417 554.683 805.498 555.303L-116.17 554.504Z" fill="#7FBBF0"/>
<path d="M830.223 485.423L830.392 480.015C830.392 476.004 825.408 472.752 819.26 472.752C803.766 472.752 791.206 480.946 791.206 491.055V498.444C791.206 501.682 788.407 504.493 784.301 505.904C780.573 507.185 778.293 509.745 778.293 512.494V516.39C778.293 520.608 781.328 524.546 786.37 527.186C789.319 528.73 791.206 531.101 791.206 533.76V539.276C791.206 545.375 798.785 550.319 808.132 550.319H813.466C822.814 550.319 830.392 545.375 830.392 539.276V539.276C828.858 531.573 832.577 527.127 836.867 524.586C843.175 520.849 846.868 515.594 846.868 510.035V509.255C846.868 503.388 842.72 497.895 835.784 494.16C832.722 492.511 830.223 489.819 830.223 485.423Z" fill="#5FAAEC"/>
<path d="M847.644 556.721C847.644 556.721 804.427 521.465 777.23 516.058C750.034 510.65 775.666 532.126 775.666 532.126C775.666 532.126 727.42 499.726 709.716 502.647C693.487 505.325 709.716 525.408 709.716 525.408C709.716 525.408 691.437 514.287 669.27 514.287C647.104 514.287 686.403 555.929 686.403 555.929L847.644 556.721Z" fill="#6FB3EE"/>
<path d="M709.718 555.931C709.718 555.931 680.175 507.411 643.589 513.022C613.941 517.569 635.02 541.983 633.212 540.873C631.406 539.762 615.504 523.192 589.775 523.192C564.045 523.192 597.672 545.556 597.672 545.556C597.672 545.556 542.854 535.042 538.561 546.083C534.999 555.246 554.923 555.931 554.923 555.931H709.718Z" fill="#6FB3EE"/>
<path d="M34.3223 546.871C34.4886 546.266 34.5752 545.647 34.5752 545.018C34.5752 537.995 23.859 532.303 10.6406 532.303C-2.57807 532.303 -13.2939 537.995 -13.2939 545.018C-13.2939 545.647 -13.2073 546.266 -13.0411 546.871H34.3223Z" fill="#7FBBF0"/>
<path d="M61.4148 543.746C61.581 542.893 61.6676 542.02 61.6676 541.132C61.6676 531.229 50.9518 523.201 37.7334 523.201C24.5147 523.201 13.7988 531.229 13.7988 541.132C13.7988 542.02 13.8854 542.893 14.0517 543.746H61.4148Z" fill="#6FB3EE"/>
<path d="M52.6542 554.736C52.488 554.131 52.4014 553.512 52.4014 552.883C52.4014 545.861 63.1172 540.168 76.3356 540.168C89.5543 540.168 100.27 545.861 100.27 552.883C100.27 553.512 100.184 554.131 100.017 554.736H52.6542Z" fill="#6FB3EE"/>
<path d="M14.3446 554.732C14.1336 553.879 14.0234 553.006 14.0234 552.118C14.0234 542.215 27.6079 534.188 44.3652 534.188C61.1222 534.188 74.707 542.215 74.707 552.118C74.707 553.006 74.5969 553.879 74.3859 554.732H14.3446Z" fill="#7FBBF0"/>
<path d="M37.6445 534.188C29.2693 534.188 21.7875 536.734 16.8498 540.729C14.3352 540.362 11.6633 540.164 8.89377 540.164C-5.97523 540.164 -18.0293 545.857 -18.0293 552.879C-18.0293 553.508 -17.932 554.128 -17.7445 554.732H64.2828C64.4702 553.879 64.5676 553.006 64.5676 552.118C64.5676 542.215 52.5135 534.188 37.6445 534.188Z" fill="#6FB3EE"/>
<path d="M2.10955 493.617C0.517441 495.264 -1.76783 496.286 -4.08844 496.566C-4.48058 494.852 -3.91246 492.922 -2.3207 491.275C-0.728253 489.628 1.55702 488.606 3.87728 488.326C4.26976 490.04 3.70165 491.97 2.10955 493.617Z" fill="#7FBBF0"/>
<path d="M-4.56111 500.823C-2.183 500.844 -0.102112 501.582 1.25824 502.73C-0.261461 503.851 -2.44316 504.551 -4.82127 504.529C-7.19938 504.508 -9.28027 503.77 -10.6406 502.622C-9.12092 501.5 -6.93922 500.801 -4.56111 500.823Z" fill="#7FBBF0"/>
<path d="M-86.4632 554.302C-86.4632 552.417 -67.9237 554.642 -66.3814 552.072C-64.8389 549.503 -82.2599 549.356 -82.2599 545.881C-82.2599 542.406 -73.3817 544.843 -68.1759 544.843C-62.9703 544.843 -78.4542 543.355 -78.4542 542.125C-78.4542 540.895 -73.0215 541.54 -73.0215 540.234C-73.0215 538.928 -101.55 537.943 -98.2114 534.746C-94.8727 531.55 -79.535 535.678 -75.3241 534.024C-71.1127 532.369 -97.8224 530.566 -98.483 528.107C-99.144 525.647 -78.8024 530.214 -75.922 528.445C-73.0415 526.676 -108.087 520.319 -106.619 515.646C-105.151 510.973 -80.056 521.63 -73.7825 520.482C-67.5087 519.335 -105.418 502.932 -96.6079 496.541C-87.798 490.15 -70.9794 517.695 -65.2393 516.711C-59.4997 515.728 -72.4274 499.306 -66.5644 496.45C-60.701 493.593 -43.8717 519.57 -42.8089 524.904C-41.7464 530.238 -39.6108 513.43 -30.4004 511.463C-21.1901 509.497 -30.1333 521.876 -28.5319 525.647C-26.9301 529.418 -19.4556 515.974 -9.37744 516.958C0.70104 517.941 -27.5973 530.238 -24.7941 533.845C-21.991 537.452 -0.139344 521.803 6.70781 526.009C13.555 530.214 -19.6122 541.885 -17.7983 545.079C-15.9842 548.274 3.91435 542.799 9.64434 546.318C15.3743 549.837 -11.7323 552.072 -15.3264 552.072C-18.9207 552.072 -32.657 554.847 -19.2415 554.302C-5.82638 553.756 -86.4632 556.187 -86.4632 554.302Z" fill="#7FBBF0"/>
<path d="M-33.6182 556.48C-33.6182 556.48 -11.292 557.214 -4.79192 554.701C1.70813 552.188 -3.42221 550.231 -3.42221 550.231C-3.42221 550.231 17.2228 549.956 17.1712 546.951C17.1193 543.947 12.1154 544.121 12.1154 544.121C12.1154 544.121 22.5354 539.771 20.592 537.06C17.6056 532.894 0.632527 540.147 0.632527 540.147C0.632527 540.147 6.19658 536.089 1.70086 535.141C-10.6407 532.538 -33.6182 556.48 -33.6182 556.48Z" fill="#6FB3EE"/>
<path d="M20.5924 537.059C22.5358 539.769 12.115 544.119 12.115 544.119C12.115 544.119 19.6363 544.057 18.4152 546.979C17.1993 549.889 -1.70955 550.872 -1.70955 550.872C-1.70955 550.872 4.89235 551.665 -1.60805 554.178C-8.10811 556.692 -33.6182 556.478 -33.6182 556.478L20.5924 537.059Z" fill="#7FBBF0"/>
<path d="M-47.1505 413.487C-47.4266 411.269 -47.5703 409.001 -47.5703 406.694C-47.5703 380.959 -29.7859 360.098 -7.84771 360.098C14.0905 360.098 31.8749 380.959 31.8749 406.694C31.8749 409.001 31.7311 411.269 31.455 413.487H-47.1505Z" fill="#7FBBF0"/>
<path d="M-52.6527 367.01C-38.753 367.01 -26.3363 376.343 -18.1412 390.981C-13.9683 389.637 -9.53428 388.914 -4.9381 388.914C19.7395 388.914 39.7451 409.776 39.7451 435.51C39.7451 437.817 39.5833 440.085 39.2726 442.303H-96.8634C-97.1738 439.176 -97.3359 435.977 -97.3359 432.723C-97.3359 396.431 -77.3304 367.01 -52.6527 367.01Z" fill="#6FB3EE"/>
<path d="M1485.27 460.154C1485.27 460.154 1384.75 381.952 1324.97 382.204C1265.19 382.455 1200.07 433.713 1115 477.49C1019.66 526.548 1144.15 528.607 1151.33 529.011C1158.52 529.415 1406.4 524.038 1410.53 521.389C1414.66 518.741 1480.85 484.823 1480.85 484.823L1485.27 460.154Z" fill="#8FC4F2"/>
<path d="M969.525 462.505H965.277V433.588H969.525V462.505Z" fill="#151313"/>
<path d="M967.395 377.492L953.529 446.312H981.26L967.395 377.492Z" fill="#1775C8"/>
<path opacity="0.2" d="M958.56 421.35L978.33 431.762L977.57 427.989L959.173 418.301L958.56 421.35Z" fill="white"/>
<path opacity="0.2" d="M961.6 406.266L973.706 408.808L973.137 405.983L962.123 403.67L961.6 406.266Z" fill="white"/>
<path d="M1524.35 444.422C1416.98 455.394 1255.86 554.006 1133.14 554.006C1010.42 554.006 983.998 530.42 937.979 535.408C891.96 540.395 830.182 554.006 830.182 554.006L1742.1 555.661C1742.1 555.661 1631.73 433.449 1524.35 444.422Z" fill="#A299F7"/>
<path d="M1135.67 415.68L1123.29 477.12H1148.05L1135.67 415.68Z" fill="#1775C8"/>
<path d="M1106.19 433.77L1096.76 480.562H1115.62L1106.19 433.77Z" fill="#1775C8"/>
<path d="M1180.48 458.746L1171.05 505.539H1189.9L1180.48 458.746Z" fill="#1775C8"/>
<path d="M1158.84 429.4L1146.46 490.841H1171.21L1158.84 429.4Z" fill="#1775C8"/>
<path d="M1037.65 444.422C1145.03 455.394 1306.14 554.006 1428.86 554.006C1551.58 554.006 1578 530.42 1624.02 535.408C1670.04 540.395 1731.82 554.006 1731.82 554.006L819.898 555.661C819.898 555.661 930.271 433.449 1037.65 444.422Z" fill="#8FC4F2"/>
<path d="M1074.41 536.482H1069.56V503.492H1074.41V536.482Z" fill="#151313"/>
<path d="M1071.99 439.49L1056.17 518.003H1087.8L1071.99 439.49Z" fill="#1775C8"/>
<path opacity="0.2" d="M1061.91 489.529L1084.46 501.408L1083.6 497.104L1062.61 486.051L1061.91 489.529Z" fill="white"/>
<path opacity="0.2" d="M1065.37 472.319L1079.18 475.219L1078.53 471.996L1065.96 469.357L1065.37 472.319Z" fill="white"/>
<path d="M1019.65 550.549H1015.02V500.789H1019.65V550.549Z" fill="#151313"/>
<path d="M1018.54 412.072L995.756 512.512H1041.33L1018.54 412.072Z" fill="#1775C8"/>
<path opacity="0.2" d="M997.199 506.139L1038.08 498.224L1037.46 495.5L997.874 503.165L997.199 506.139Z" fill="white"/>
<path opacity="0.2" d="M1004.4 474.409L1031.49 469.163L1030.88 466.439L1005.08 471.435L1004.4 474.409Z" fill="white"/>
<path d="M1742.1 555.66C1742.1 555.66 1624.37 492.854 1472.57 488.996C1421.6 487.7 1212.87 513.675 1037.11 534.082C1029.72 534.94 1013.75 543.339 1006.26 544.203C923.057 553.809 845.511 555.839 820.431 556.459L1742.1 555.66Z" fill="#7FBBF0"/>
<path d="M795.711 486.579L795.541 481.171C795.541 477.16 800.526 473.908 806.674 473.908C822.168 473.908 834.727 482.102 834.727 492.211V499.601C834.727 502.838 837.527 505.649 841.632 507.06C845.361 508.341 847.641 510.901 847.641 513.65V517.546C847.641 521.764 844.606 525.702 839.564 528.342C836.615 529.886 834.727 532.257 834.727 534.916V540.433C834.727 546.531 827.149 551.475 817.801 551.475H812.468C803.12 551.475 795.541 546.531 795.541 540.433V540.432C797.076 532.729 793.357 528.283 789.067 525.742C782.759 522.005 779.065 516.75 779.065 511.191V510.411C779.065 504.544 783.214 499.051 790.15 495.316C793.211 493.667 795.711 490.975 795.711 486.579Z" fill="#5FAAEC"/>
<path d="M778.293 557.88C778.293 557.88 821.51 522.623 848.707 517.216C875.903 511.808 850.271 533.285 850.271 533.285C850.271 533.285 898.517 500.884 916.221 503.805C932.451 506.483 916.221 526.566 916.221 526.566C916.221 526.566 934.5 515.445 956.667 515.445C978.833 515.445 939.534 557.087 939.534 557.087L778.293 557.88Z" fill="#5FAAEC"/>
<path d="M916.219 557.088C916.219 557.088 945.761 508.567 982.347 514.178C1012 518.725 990.916 543.139 992.724 542.029C994.531 540.919 1010.43 524.348 1036.16 524.348C1061.89 524.348 1028.26 546.712 1028.26 546.712C1028.26 546.712 1083.08 536.198 1087.38 547.239C1090.94 556.402 1071.01 557.088 1071.01 557.088H916.219Z" fill="#6FB3EE"/>
<path opacity="0.2" d="M291.993 308.158C290.205 303.379 283.242 299.813 274.918 299.813C273.389 299.813 271.907 299.934 270.494 300.16C266.386 294.764 257.47 291.025 247.13 291.025C244.457 291.025 241.879 291.275 239.455 291.738C233.889 286.078 223.777 282.293 212.224 282.293C198.48 282.293 186.773 287.65 182.337 295.151C179.198 294.076 175.583 293.46 171.733 293.46C159.685 293.46 149.919 299.459 149.919 306.858C149.919 307.297 149.956 307.73 150.023 308.158H291.993Z" fill="white"/>
<path opacity="0.2" d="M485.531 391.737C486.392 389.435 489.745 387.718 493.754 387.718C494.49 387.718 495.203 387.776 495.884 387.885C497.862 385.287 502.156 383.486 507.135 383.486C508.422 383.486 509.664 383.606 510.831 383.83C513.511 381.104 518.381 379.281 523.944 379.281C530.563 379.281 536.201 381.861 538.337 385.473C539.848 384.955 541.59 384.659 543.444 384.659C549.245 384.659 553.948 387.547 553.948 391.111C553.948 391.322 553.93 391.531 553.898 391.737H485.531Z" fill="white"/>
<path opacity="0.2" d="M365.503 361.801C364.445 358.972 360.324 356.862 355.397 356.862C354.493 356.862 353.616 356.934 352.78 357.067C350.349 353.874 345.072 351.662 338.953 351.662C337.371 351.662 335.846 351.81 334.411 352.084C331.117 348.734 325.132 346.494 318.296 346.494C310.162 346.494 303.234 349.665 300.609 354.103C298.751 353.467 296.612 353.103 294.333 353.103C287.204 353.103 281.424 356.653 281.424 361.031C281.424 361.291 281.446 361.548 281.485 361.801H365.503Z" fill="white"/>
<path opacity="0.2" d="M529.17 328.58C527.741 324.76 522.176 321.911 515.522 321.911C514.301 321.911 513.117 322.007 511.988 322.187C508.704 317.875 501.578 314.887 493.314 314.887C491.178 314.887 489.118 315.087 487.18 315.457C482.732 310.933 474.65 307.908 465.417 307.908C454.433 307.908 445.076 312.19 441.531 318.184C439.022 317.325 436.133 316.834 433.056 316.834C423.428 316.834 415.622 321.627 415.622 327.541C415.622 327.891 415.652 328.238 415.705 328.58H529.17Z" fill="white"/>
<path opacity="0.2" d="M71.4453 375.23C72.1575 373.326 74.9319 371.906 78.2481 371.906C78.8571 371.906 79.4478 371.954 80.0107 372.044C81.6475 369.894 85.1996 368.405 89.3187 368.405C90.3836 368.405 91.4107 368.504 92.3765 368.689C94.5942 366.434 98.623 364.926 103.225 364.926C108.701 364.926 113.365 367.06 115.132 370.048C116.383 369.62 117.823 369.375 119.357 369.375C124.157 369.375 128.047 371.765 128.047 374.712C128.047 374.887 128.033 375.06 128.006 375.23H71.4453Z" fill="white"/>
<path opacity="0.2" d="M3.40184 237.047C2.1028 233.575 -2.95688 230.984 -9.00556 230.984C-10.1158 230.984 -11.1928 231.072 -12.2196 231.236C-15.2049 227.315 -21.6835 224.598 -29.1961 224.598C-31.1385 224.598 -33.0115 224.78 -34.7733 225.117C-38.8173 221.004 -46.1651 218.254 -54.5593 218.254C-64.546 218.254 -73.0524 222.147 -76.2755 227.596C-78.5569 226.815 -81.1831 226.368 -83.9807 226.368C-92.7345 226.368 -99.8311 230.727 -99.8311 236.103C-99.8311 236.422 -99.8044 236.737 -99.7555 237.047H3.40184Z" fill="white"/>
<path opacity="0.2" d="M652.224 264.438C649.437 256.987 638.58 251.428 625.602 251.428C623.22 251.428 620.909 251.616 618.706 251.968C612.301 243.556 598.4 237.727 582.28 237.727C578.113 237.727 574.094 238.117 570.314 238.839C561.636 230.014 545.87 224.113 527.859 224.113C506.431 224.113 488.179 232.466 481.264 244.159C476.369 242.483 470.734 241.524 464.731 241.524C445.948 241.524 430.722 250.876 430.722 262.411C430.722 263.095 430.779 263.771 430.884 264.438H652.224Z" fill="white"/>
<path opacity="0.2" d="M812.662 397.965C813.523 395.664 816.876 393.947 820.885 393.947C821.621 393.947 822.335 394.005 823.015 394.113C824.994 391.515 829.287 389.715 834.266 389.715C835.553 389.715 836.795 389.835 837.962 390.058C840.642 387.332 845.512 385.51 851.076 385.51C857.694 385.51 863.332 388.09 865.468 391.701C866.98 391.184 868.72 390.888 870.574 390.888C876.376 390.888 881.079 393.776 881.079 397.339C881.079 397.55 881.061 397.759 881.029 397.965H812.662Z" fill="white"/>
<path opacity="0.2" d="M732.142 341.687C731.27 339.356 727.872 337.616 723.811 337.616C723.065 337.616 722.342 337.675 721.653 337.785C719.648 335.153 715.298 333.328 710.253 333.328C708.95 333.328 707.692 333.45 706.509 333.677C703.793 330.915 698.859 329.068 693.222 329.068C686.517 329.068 680.805 331.682 678.641 335.341C677.109 334.817 675.346 334.517 673.467 334.517C667.589 334.517 662.824 337.444 662.824 341.053C662.824 341.268 662.842 341.479 662.875 341.687H732.142Z" fill="white"/>
<path opacity="0.2" d="M877.704 285.111C876.275 281.291 870.71 278.442 864.057 278.442C862.836 278.442 861.651 278.538 860.522 278.719C857.238 274.406 850.112 271.418 841.849 271.418C839.712 271.418 837.652 271.618 835.714 271.989C831.266 267.465 823.184 264.439 813.951 264.439C802.966 264.439 793.611 268.721 790.065 274.716C787.556 273.856 784.667 273.365 781.59 273.365C771.962 273.365 764.156 278.159 764.156 284.072C764.156 284.423 764.186 284.769 764.239 285.111H877.704Z" fill="white"/>
<path opacity="0.2" d="M449.427 355.74C450.04 354.102 452.425 352.881 455.277 352.881C455.8 352.881 456.308 352.922 456.792 353C458.199 351.151 461.254 349.87 464.796 349.87C465.712 349.87 466.595 349.956 467.425 350.115C469.332 348.175 472.796 346.879 476.754 346.879C481.462 346.879 485.473 348.714 486.992 351.283C488.068 350.915 489.306 350.705 490.625 350.705C494.753 350.705 498.099 352.759 498.099 355.294C498.099 355.444 498.086 355.593 498.063 355.74H449.427Z" fill="white"/>
<path opacity="0.2" d="M1373.58 318.294C1371.79 313.515 1364.83 309.95 1356.5 309.95C1354.98 309.95 1353.49 310.071 1352.08 310.296C1347.97 304.9 1339.06 301.162 1328.72 301.162C1326.04 301.162 1323.47 301.412 1321.04 301.875C1315.48 296.215 1305.36 292.43 1293.81 292.43C1280.07 292.43 1268.36 297.787 1263.92 305.287C1260.78 304.212 1257.17 303.597 1253.32 303.597C1241.27 303.597 1231.51 309.596 1231.51 316.995C1231.51 317.433 1231.54 317.867 1231.61 318.294H1373.58Z" fill="white"/>
<path opacity="0.2" d="M1153.02 385.367C1153.74 383.463 1156.51 382.043 1159.83 382.043C1160.44 382.043 1161.03 382.091 1161.59 382.181C1163.23 380.031 1166.78 378.541 1170.9 378.541C1171.96 378.541 1172.99 378.641 1173.95 378.826C1176.17 376.57 1180.2 375.062 1184.8 375.062C1190.28 375.062 1194.94 377.197 1196.71 380.185C1197.96 379.757 1199.4 379.512 1200.94 379.512C1205.74 379.512 1209.63 381.901 1209.63 384.849C1209.63 385.024 1209.61 385.196 1209.58 385.367H1153.02Z" fill="white"/>
<path opacity="0.2" d="M1084.98 247.184C1083.69 243.711 1078.63 241.121 1072.58 241.121C1071.47 241.121 1070.39 241.209 1069.36 241.373C1066.38 237.452 1059.9 234.735 1052.39 234.735C1050.44 234.735 1048.57 234.917 1046.81 235.254C1042.77 231.141 1035.42 228.391 1027.02 228.391C1017.04 228.391 1008.53 232.283 1005.31 237.733C1003.03 236.952 1000.4 236.505 997.602 236.505C988.848 236.505 981.752 240.863 981.752 246.24C981.752 246.558 981.779 246.873 981.828 247.184H1084.98Z" fill="white"/>
<path opacity="0.2" d="M820.931 350.818C822.901 345.551 830.576 341.621 839.751 341.621C841.435 341.621 843.069 341.754 844.626 342.003C849.155 336.056 858.981 331.935 870.377 331.935C873.323 331.935 876.165 332.21 878.837 332.721C884.972 326.482 896.117 322.311 908.85 322.311C923.999 322.311 936.901 328.215 941.791 336.482C945.251 335.297 949.235 334.619 953.479 334.619C966.757 334.619 977.521 341.23 977.521 349.385C977.521 349.869 977.481 350.346 977.407 350.818H820.931Z" fill="white"/>
<path d="M2031.97 559.941H-269.691C-274.516 559.941 -278.428 558.588 -278.428 556.92C-278.428 555.251 -274.516 553.898 -269.691 553.898H2031.97C2036.79 553.898 2040.7 555.251 2040.7 556.92C2040.7 558.588 2036.79 559.941 2031.97 559.941Z" fill="#4FA2EA"/>
<path d="M214.176 451.43L215.43 451.437L215.396 457.431L214.142 457.424L214.176 451.43Z" fill="#1A1A1A"/>
<path d="M224.266 455.004L225.52 455.011L225.494 459.704L224.239 459.697L224.266 455.004Z" fill="#1A1A1A"/>
<path d="M174.749 472.272L174.24 472.269L174.266 467.75L174.774 467.753L174.749 472.272Z" fill="#8A99AA"/>
<path d="M236.21 472.614L235.701 472.611L235.727 468.092L236.235 468.095L236.21 472.614Z" fill="#8A99AA"/>
<path d="M214.112 458.345L179.07 458.15C177.352 458.141 175.951 459.353 175.943 460.858L175.921 464.698C175.913 466.203 177.3 467.43 179.019 467.44L214.06 467.635C215.779 467.645 217.179 466.433 217.188 464.928L217.209 461.088C217.217 459.583 215.831 458.355 214.112 458.345Z" fill="#95817D"/>
<path d="M217.198 463.008L217.212 460.515C217.219 459.326 216.383 458.358 215.344 458.352L177.838 458.143C176.8 458.138 175.953 459.096 175.946 460.285L175.932 462.778L217.198 463.008Z" fill="#080403"/>
<path d="M182.565 464.436L181.163 464.428L181.18 461.457L182.581 461.465L182.565 464.436Z" fill="#1D87E4"/>
<path d="M211.948 464.598L210.546 464.591L210.562 461.619L211.964 461.627L211.948 464.598Z" fill="#1D87E4"/>
<path d="M200.801 463.601L191.187 463.547L191.193 462.449L200.807 462.503L200.801 463.601Z" fill="#1A1A1A"/>
<path d="M185.849 455.164L184.851 455.159L184.867 452.188L185.865 452.193L185.849 455.164Z" fill="#1D87E4"/>
<path d="M233.99 467.738L209.682 467.59L209.344 458.105L234.043 458.243C237.038 458.26 239.453 460.399 239.438 463.021C239.424 465.643 236.985 467.754 233.99 467.738Z" fill="#FADFB1"/>
<path d="M214.895 462.885C214.88 465.507 212.632 467.62 209.874 467.605C207.115 467.59 204.891 465.451 204.905 462.829C204.92 460.207 207.168 458.094 209.927 458.11C212.685 458.125 214.91 460.263 214.895 462.885Z" fill="#1D87E4"/>
<path d="M220.016 468.105L220.011 468.102C219.787 467.949 219.745 467.669 219.91 467.468C221.567 465.441 222.037 463.277 221.307 461.029C220.901 459.778 220.211 458.822 219.822 458.349C219.665 458.158 219.7 457.893 219.902 457.737L219.908 457.733C220.141 457.553 220.499 457.589 220.681 457.809C221.119 458.34 221.86 459.372 222.311 460.74C222.896 462.511 223.078 465.178 220.769 468.007C220.594 468.221 220.253 468.267 220.016 468.105Z" fill="#F47358"/>
<path d="M228.899 468.154L228.894 468.15C228.67 467.997 228.628 467.718 228.793 467.517C230.45 465.49 230.92 463.326 230.19 461.077C229.784 459.827 229.094 458.871 228.705 458.398C228.548 458.206 228.583 457.942 228.785 457.786L228.791 457.781C229.024 457.602 229.382 457.638 229.564 457.858C230.002 458.389 230.743 459.421 231.194 460.788C231.779 462.56 231.961 465.227 229.652 468.056C229.477 468.27 229.135 468.316 228.899 468.154Z" fill="#F47358"/>
<path d="M214.04 462.029C213.782 460.532 212.864 459.773 212.138 459.4C211.059 458.845 209.669 458.76 208.418 459.173C207.229 459.565 206.276 460.469 205.93 461.532C205.622 462.477 205.841 463.442 206.546 464.247C207.73 465.6 209.558 465.398 210.452 465.066C211.262 464.764 211.874 464.042 212.009 463.227C212.118 462.567 211.781 461.927 211.128 461.557C210.471 461.185 209.662 461.178 209.016 461.538C208.546 461.801 208.077 462.321 208.512 463.314L208.871 463.194C208.592 462.558 208.708 462.11 209.223 461.822C209.741 461.533 210.391 461.54 210.919 461.84C211.444 462.137 211.716 462.65 211.628 463.178C211.512 463.879 210.991 464.499 210.301 464.756C209.509 465.051 207.891 465.232 206.851 464.043C206.045 463.122 206.106 462.219 206.3 461.625C206.608 460.676 207.493 459.838 208.554 459.488C209.697 459.111 210.965 459.186 211.944 459.69C212.881 460.171 213.474 460.998 213.66 462.079C213.902 463.488 213.595 464.609 212.746 465.41C211.152 466.914 207.794 466.874 207.217 466.855C207.425 466.982 207.644 467.094 207.872 467.191L207.902 467.191C208.924 467.197 211.52 467.061 213.027 465.64C213.96 464.76 214.301 463.545 214.04 462.029Z" fill="#F47358"/>
<path d="M207.565 455.284L206.567 455.278L206.584 452.307L207.582 452.312L207.565 455.284Z" fill="#1D87E4"/>
<path d="M199.636 454.304L192.791 454.266L192.797 453.168L199.642 453.206L199.636 454.304Z" fill="#1A1A1A"/>
<path d="M238.606 468.364L172.004 467.993L172.008 467.379L238.609 467.75L238.606 468.364Z" fill="#8A99AA"/>
<path d="M108.305 503.716L121.213 503.788C122.319 503.794 123.062 504.785 122.629 505.675L121.163 508.696C119.764 511.577 116.527 513.438 112.951 513.418L108.251 513.392C107.332 513.387 106.589 512.73 106.594 511.924L106.632 505.166C106.636 504.36 107.385 503.711 108.305 503.716Z" fill="#0D4473"/>
<path d="M107.558 527.029C106.67 527.005 106.035 527.783 106.359 528.509C107.275 530.559 109.254 532.178 111.793 532.78L125.045 535.923C126.124 536.092 127.133 535.425 127.257 534.471C127.514 532.505 128.061 530.623 128.854 528.849C129.122 528.249 128.626 527.597 127.889 527.577L107.558 527.029Z" fill="#156BB6"/>
<path d="M293.256 496.892C293.025 496.779 270.05 485.584 254.808 479.303C239.717 473.085 222.829 473.641 222.101 473.669C220.161 473.619 179.77 472.627 167.332 475.947C154.803 479.292 138.422 494.754 137.732 495.411L137.541 495.592L141.822 513.619L142.292 513.599C155.037 513.04 164.775 516.064 170.449 522.343C174.739 527.089 175.244 532.08 175.249 532.13L175.288 532.558L221.225 533.848L221.225 533.851L221.755 533.863L222.321 533.879L222.321 533.876L286.33 535.326L286.341 534.844C286.763 516.63 293.446 497.644 293.513 497.455L293.646 497.082L293.256 496.892ZM176.285 531.625C176.072 530.273 175.127 525.993 171.346 521.788C167.271 517.256 159.001 512.013 142.705 512.621L138.73 495.883C140.626 494.119 156.118 479.945 167.653 476.866C179.194 473.785 216.62 474.507 221.555 474.617L221.23 532.887L176.285 531.625ZM285.257 534.341L222.327 532.915L222.651 474.615C225.613 474.557 240.73 474.563 254.342 480.172C268.462 485.991 289.251 496.044 292.336 497.543C291.404 500.284 285.745 517.556 285.257 534.341Z" fill="#125895"/>
<path d="M106.355 528.51C107.271 530.56 109.25 532.179 111.789 532.782L125.041 535.925C126.121 536.094 127.129 535.427 127.254 534.473C127.353 533.714 127.496 532.968 127.679 532.235L106.355 528.51Z" fill="#125895"/>
<path d="M289.231 538.504C289.233 537.465 289.324 536.443 289.495 535.443C289.702 534.241 288.684 533.146 287.297 533.108L173.956 530.054C172.72 530.021 171.823 531.049 172.154 532.093C172.732 533.914 173.036 535.83 173.024 537.805C173.015 539.114 172.871 540.394 172.602 541.635C172.321 542.932 173.432 544.139 174.94 544.147L285.865 544.766C288.041 544.778 289.696 543.102 289.422 541.211C289.294 540.324 289.229 539.421 289.231 538.504Z" fill="#156BB6"/>
<path d="M289.228 538.504C289.228 538.487 289.229 538.47 289.229 538.453L173.021 537.805C173.013 539.114 172.868 540.394 172.599 541.635C172.318 542.932 173.43 544.139 174.937 544.147L285.862 544.766C288.038 544.778 289.693 543.102 289.419 541.211C289.291 540.324 289.226 539.421 289.228 538.504Z" fill="#125895"/>
<path d="M151.126 497.8L213.768 498.668C213.768 498.668 217.603 498.599 218.142 495.443C218.682 492.286 218.713 478.755 218.713 478.755C218.713 478.755 218.273 476.035 215.302 475.984C213.496 475.953 198.366 474.921 183.637 476.409C171.621 477.623 160.486 482.364 152.023 489.694L147.554 493.564C147.554 493.564 144.532 497.709 151.126 497.8Z" fill="#E9FBFB"/>
<path d="M225.682 480.51L225.603 494.697C225.593 496.541 227.199 498.064 229.241 498.147L278.456 500.155C279.586 500.201 280.695 499.76 281.348 498.927C282.238 497.792 282.35 495.917 277.953 493.377C270.307 488.961 250.844 479.392 243.63 478.437C239.038 477.828 233.027 477.542 229.264 477.414C227.313 477.348 225.692 478.75 225.682 480.51Z" fill="#E9FBFB"/>
<path d="M160.445 491.235C160.445 491.235 201.287 487.392 202.158 488.102C203.029 488.812 208.637 500.467 209.649 503.651L161.573 502.986L158.213 498.496L160.445 491.235Z" fill="#95817D"/>
<path d="M246.977 494.912C246.977 494.912 250.711 498.825 251.754 503.033L250.562 504.708L248.203 502.494L246.977 494.912Z" fill="#253C60"/>
<path d="M251.046 484.723C250.349 480.61 246.123 477.631 241.674 479.6C240.674 480.043 239.318 480.946 238.624 481.717C236.749 483.802 236.258 486.388 234.322 488.412C235.026 488.886 235.879 489.383 236.894 489.862L238.101 488.469L237.678 490.214C240.65 491.479 244.851 492.533 250.606 492.536C251.345 489.686 251.417 486.916 251.046 484.723Z" fill="#1A1A1A"/>
<path d="M241.035 493.708C241.035 493.708 236.767 493.446 235.07 495.046C233.372 496.646 238.736 509.408 239.032 511.458C239.327 513.509 236.478 517.577 236.478 517.577C236.478 517.577 248.199 522.456 251.074 520.813C251.074 520.813 250.706 504.394 250.407 502.93C250.108 501.465 247.582 495.5 246.971 494.911C246.361 494.322 241.035 493.708 241.035 493.708Z" fill="#345389"/>
<path d="M242.487 488.729C242.487 488.729 242.465 488.839 242.424 489.025C242.229 489.922 241.479 492.895 240.979 493.71C240.375 494.696 243.004 497.865 245.554 497.494C246.313 497.383 244.929 494.592 244.999 494.298C245.13 493.734 245.309 492.965 245.492 492.176C245.595 491.732 245.7 491.28 245.798 490.856C246.077 489.652 246.305 488.667 246.305 488.667L242.487 488.729Z" fill="#F6A390"/>
<path d="M160.746 491.923C160.706 491.677 160.601 491.447 160.447 491.235L154.35 496.516C154.35 496.516 149.752 502.822 159.784 502.961L162.544 502.999L160.746 491.923Z" fill="#95817D"/>
<path d="M242.424 489.025C242.465 488.839 242.488 488.729 242.488 488.729L246.306 488.667C246.306 488.667 246.078 489.652 245.799 490.857C245.701 491.278 245.597 491.727 245.494 492.169C244.905 492.09 244.291 491.836 243.676 491.36C243.006 490.841 242.568 490.219 242.305 489.557C242.354 489.346 242.394 489.164 242.424 489.025Z" fill="#F47358"/>
<path d="M245.099 481.155C245.099 481.155 243.3 480.964 242.166 482.233C241.031 483.502 239.793 487.439 242.583 489.6C245.372 491.76 248.154 489.348 248.579 486.776C249.004 484.205 249.18 481.085 245.099 481.155Z" fill="#F6A390"/>
<path d="M249.404 486.743C249.067 487.309 248.504 487.621 248.147 487.439C247.79 487.257 247.774 486.65 248.111 486.083C248.449 485.517 249.012 485.205 249.369 485.387C249.726 485.569 249.742 486.176 249.404 486.743Z" fill="#F6A390"/>
<path d="M245.3 480.734C245.3 480.734 242.875 484.471 241.155 484.635C239.434 484.799 239.197 486.791 239.197 486.791C239.197 486.791 239.838 482.201 241.545 481.325C243.252 480.449 245.3 480.734 245.3 480.734Z" fill="#1A1A1A"/>
<path d="M241.597 485.58C241.734 486.247 241.449 486.856 240.962 486.941C240.474 487.026 239.969 486.554 239.833 485.887C239.697 485.22 239.981 484.611 240.469 484.526C240.956 484.441 241.461 484.913 241.597 485.58Z" fill="#F6A390"/>
<path d="M235.405 511.889C235.395 511.854 237.046 505.846 237.707 504.519C238.368 503.193 240.943 497.028 240.943 497.028L237.658 496.38C237.658 496.38 235.511 501.204 234.532 503.385C233.553 505.565 233.944 509.599 233.894 510.736C233.894 510.752 233.747 511.697 233.746 511.713C233.712 511.839 233.681 511.943 233.667 511.964C233.628 512.019 233.513 512.4 233.507 512.433C233.502 512.466 233.405 512.594 233.365 512.649C233.326 512.705 233.232 513.477 233.212 513.602C233.192 513.727 233.254 514.009 233.254 514.009L233.216 514.527C233.189 514.908 233.64 514.81 233.64 514.81C233.628 514.989 233.699 515.083 233.814 515.118C233.929 515.152 234.065 515.124 234.087 515.132C234.108 515.14 234.117 515.196 234.117 515.196C234.104 515.31 234.25 515.398 234.345 515.415C234.44 515.432 234.609 515.378 234.657 515.329C234.705 515.279 234.739 515.287 234.739 515.287C234.834 515.359 235.201 515.358 235.287 515.254C235.372 515.151 235.453 514.605 235.491 514.556C235.529 514.508 235.612 514.424 235.624 514.345C235.637 514.266 235.941 513.708 235.959 513.596C235.977 513.484 235.793 513.106 235.753 512.88C235.713 512.654 235.463 512.301 235.403 512.2C235.38 512.161 235.387 512.032 235.405 511.889Z" fill="#F48B7E"/>
<path d="M246.397 488.012L243.636 487.871C243.636 487.871 243.64 488.793 244.852 488.886C246.33 488.998 246.397 488.012 246.397 488.012Z" fill="white"/>
<path d="M231.271 489.774L230.239 495.557C230.239 495.557 233.851 502.469 236.033 501.884C237.865 501.392 236.774 495.288 236.774 495.288C236.774 495.288 235.795 492.008 236.103 490.37C236.411 488.733 231.271 489.774 231.271 489.774Z" fill="#F6A390"/>
<path d="M236.096 490.369C236.404 488.732 231.263 489.773 231.263 489.773L231.178 490.253C231.326 490.575 231.508 490.851 231.73 491.063C232.871 492.153 234.66 492.815 236.21 492.873C236.059 491.988 235.97 491.041 236.096 490.369Z" fill="#F47358"/>
<path d="M230.473 481.58C230.328 481.533 229.273 488.166 231.195 490.003C233.117 491.841 236.878 492.459 238.236 491.028C239.738 489.445 239.703 482.31 236.71 480.414C233.716 478.518 230.473 481.58 230.473 481.58Z" fill="#F6A390"/>
<path d="M235.581 476.858C233.257 477.261 231.746 478.499 231.191 479.027C230.136 479.131 228.7 479.635 227.209 481.779C225.374 484.415 226.702 487.355 228.812 488.806C230.922 490.256 230.883 491.918 230.883 491.918L231.223 491.06C231.473 490.411 231.578 489.721 231.499 489.037C231.452 488.627 231.354 488.184 231.163 487.818C230.659 486.854 232.266 486.225 232.72 485.428C233.07 484.814 233.095 483.406 233.646 482.392L234.302 481.619C234.302 481.619 235.81 480.6 237.279 480.898C238.748 481.196 238.563 476.341 235.581 476.858Z" fill="#8A99AA"/>
<path d="M232.615 486.608C232.626 487.418 232.203 488.078 231.671 488.083C231.139 488.088 230.698 487.436 230.687 486.626C230.677 485.816 231.1 485.155 231.632 485.15C232.164 485.145 232.605 485.797 232.615 486.608Z" fill="#F6A390"/>
<path d="M235.743 488.496L238.656 488.38C238.656 488.38 238.641 489.354 237.362 489.438C235.802 489.54 235.743 488.496 235.743 488.496Z" fill="white"/>
<path d="M229.415 495.32C229.685 494.885 230.185 494.594 230.749 494.553C233.197 494.375 239.922 494.408 243.325 499.632C243.862 500.455 244.246 501.348 244.52 502.265L245.227 504.875L227.534 504.273L227.574 502.552C227.409 500.038 228.046 497.533 229.415 495.32Z" fill="#3C8F7C"/>
<path d="M271.39 505.972L274.01 496.85C274.186 496.239 273.762 495.618 273.064 495.463C272.366 495.309 271.658 495.679 271.483 496.289L268.736 505.851L271.39 505.972Z" fill="#1A1A1A"/>
<path d="M264.748 505.672C265.477 505.278 266.069 504.954 266.467 504.746C266.498 504.73 268.354 503.963 268.384 503.948C268.645 503.866 268.866 503.8 268.917 503.8C269.058 503.798 269.864 503.565 269.929 503.539C269.993 503.512 270.326 503.515 270.466 503.513C270.607 503.511 272.097 502.847 272.343 502.747C272.589 502.646 273.034 502.271 273.034 502.271L274.007 501.791C274.722 501.438 274.08 500.915 274.08 500.915C274.415 500.747 274.512 500.552 274.456 500.358C274.399 500.163 274.207 500.003 274.199 499.965C274.19 499.927 274.284 499.858 274.284 499.858C274.502 499.758 274.511 499.465 274.443 499.316C274.376 499.167 274.103 498.989 273.965 498.973C273.826 498.957 273.805 498.903 273.805 498.903C273.837 498.697 273.455 498.189 273.181 498.177C272.907 498.164 271.838 498.614 271.711 498.611C271.583 498.608 271.347 498.58 271.192 498.643C271.037 498.707 269.715 498.859 269.495 498.949C269.275 499.039 268.783 499.682 268.417 499.969C268.051 500.257 267.672 500.964 267.551 501.152C267.504 501.225 267.264 501.348 266.989 501.47L266.988 501.47C266.945 501.509 258.863 504.016 254.08 505.237L264.748 505.672Z" fill="#F6A390"/>
<path d="M239.603 504.647C239.118 502.016 238.517 499.25 237.862 497.971C236.427 495.166 231.54 493.473 229.13 495.198C227.843 496.119 228.372 500.538 229.442 504.357L239.603 504.647Z" fill="#4FBEA5"/>
<path d="M168.568 489.034C168.568 489.034 162.573 488.871 160.529 490.039C158.486 491.208 158.67 502.95 158.67 502.95L160.645 503.29C160.645 503.29 161.318 511.373 162.847 511.803C164.377 512.233 174.461 509.584 176.566 507.322C178.67 505.06 172.241 488.274 172.241 488.274L168.568 489.034Z" fill="#3C8F7C"/>
<path d="M179.281 479.783C179.811 478.367 180.185 474.085 180.308 472.63C180.227 472.525 179.794 471.898 179.847 470.679C179.885 469.817 179.205 468.387 179.836 468.487C180.466 468.587 180.491 470.083 180.871 469.828C181.251 469.572 181.441 466.443 182.013 466.533C182.584 466.624 182.179 469.57 182.52 469.341C182.86 469.113 182.89 466.394 183.697 466.522C184.505 466.65 183.323 469.718 183.756 469.787C184.189 469.856 184.877 467.905 185.527 468.008C186.177 468.111 184.443 470.633 184.643 470.499C184.843 470.365 186.235 469.338 186.464 469.571C186.723 469.834 183.498 472.776 183.483 473.555C183.74 475.53 184.251 479.107 183.512 481.349C182.608 484.092 180.295 490.187 180.295 490.187L175.442 489.149C175.442 489.149 178.653 481.462 179.281 479.783Z" fill="#F6A390"/>
<path d="M181.403 470.406C181.642 470.502 181.839 470.648 182.012 470.814C182.03 470.847 182.633 471.351 182.474 472.165C182.37 471.666 182.253 471.112 181.403 470.406Z" fill="#F48B7E"/>
<path d="M150.215 491.232C150.215 491.232 150.343 490.548 149.699 489.487C149.285 488.807 149.168 487.425 148.73 487.72C148.292 488.015 148.941 489.227 148.536 489.151C148.131 489.074 146.589 486.621 146.192 486.888C145.796 487.155 147.419 489.388 147.057 489.32C146.695 489.252 145.459 487.074 144.898 487.452C144.337 487.829 146.611 489.896 146.31 490.099C146.009 490.302 144.612 488.965 144.161 489.269C143.709 489.573 146.162 491.013 145.949 490.973C145.736 490.933 144.213 490.58 144.141 490.845C144.06 491.145 147.24 492.042 147.598 492.664C147.956 493.285 153.397 499.497 154.961 499.509C156.524 499.52 163.572 495.397 164.089 494.046C164.607 492.696 163.979 491.257 162.956 491.064C161.934 490.871 155.362 494.963 155.041 494.903C154.72 494.842 150.215 491.232 150.215 491.232Z" fill="#F6A390"/>
<path d="M148.601 489.725C148.445 489.909 148.353 490.12 148.294 490.338C148.297 490.375 148.048 491.071 148.639 491.716C148.453 491.236 148.249 490.701 148.601 489.725Z" fill="#F48B7E"/>
<path d="M164.969 499.846C164.969 499.846 171.25 504.272 171.943 505.172C172.46 505.845 170.685 513.386 170.685 513.386C170.685 513.386 168.191 513.441 167.054 512.658C167.054 512.658 167.765 507.443 167.466 507.238C167.168 507.032 160.263 504.299 160.263 504.299L160.718 501.205L164.969 499.846Z" fill="#95817D"/>
<path d="M177.159 484.113C177.159 484.113 178.249 484.297 181.96 487.885L177.58 495.585L173.607 489.141L177.159 484.113Z" fill="#9AC1F9"/>
<path d="M170.089 489.521C170.089 489.521 172.941 488.98 173.942 488.557C174.943 488.135 184.074 507.242 181.741 507.902C176.869 509.28 164.219 512.924 164.219 512.924C164.219 512.924 163.862 511.817 164.331 509.81C165.145 506.334 164.926 498.565 164.766 497.206C164.673 496.407 159.271 498.687 159.271 498.687L157.182 492.653C157.182 492.653 163.343 490.852 165.41 490.284C165.987 490.125 170.089 489.521 170.089 489.521Z" fill="#9AC1F9"/>
<path d="M180.562 501.378C179.427 498.228 171.839 489.146 171.772 489.06L173.024 488.321C173.301 488.68 179.482 496.379 180.683 499.711L180.562 501.378Z" fill="#3C8F7C"/>
<path d="M163.967 507.121L163.18 506.238C163.233 506.202 168.57 502.503 168.737 498.372C168.905 494.198 165.085 490.166 165.046 490.126L166.023 489.406C166.194 489.583 170.2 493.802 170.014 498.413C169.827 503.068 164.206 506.958 163.967 507.121Z" fill="#3C8F7C"/>
<path d="M168.801 476.773C168.801 476.773 171.064 475.319 173.187 477.711C174.881 479.62 174.66 479.021 175.496 479.97C176.333 480.919 177.603 481.008 177.788 482.579C177.972 484.151 177.163 484.47 177.163 484.47C177.163 484.47 178.064 485.625 177.374 486.956C176.684 488.288 174.723 489.556 172.955 489.536C172.955 489.536 170.478 491.029 167.776 490.667C165.074 490.304 165.991 490.223 164.915 490.319C163.838 490.414 160.775 489.38 161.033 487.451C161.033 487.451 159.042 485.763 160.587 484.103C162.131 482.443 162.969 481.285 163.729 479.171C164.488 477.057 167.547 476.39 168.801 476.773Z" fill="#1A1A1A"/>
<path d="M171.754 487.63C171.754 487.63 171.985 490.42 172.313 490.655C172.642 490.89 173.11 491.286 172.749 491.988C172.388 492.691 170.434 492.436 169.502 492.135C168.608 491.846 167.979 491.216 167.979 491.216L167.906 486.771L171.754 487.63Z" fill="#F6A390"/>
<path d="M170.623 488.895C169.99 488.762 168.879 488.495 167.916 487.394L167.906 486.771L171.754 487.63C171.754 487.63 171.81 488.311 171.907 489.028C171.385 489.056 170.925 488.959 170.623 488.895Z" fill="#F48B7E"/>
<path d="M166.371 484.326C166.371 484.326 166.089 482.699 164.979 483.118C163.87 483.538 165.033 485.928 165.975 485.763C166.916 485.598 166.371 484.326 166.371 484.326Z" fill="#F6A390"/>
<path d="M169.866 478.025C169.866 478.025 171.656 477.831 172.717 478.972C173.778 480.114 175.184 483.518 173.951 486.062C172.718 488.606 170.714 488.184 169.888 488.01C169.062 487.836 167.423 487.434 166.362 485.252C165.3 483.07 165.285 477.955 169.866 478.025Z" fill="#F6A390"/>
<path d="M206.293 504.22L209.512 518.025L203.828 517.511L201.16 504.886L206.293 504.22Z" fill="#F6A390"/>
<path d="M207.27 504.631L201.164 504.887C201.164 504.887 200.729 501.194 200.635 499.427C200.52 497.285 200.581 494.517 200.88 494.565C201.718 494.699 202.857 495.055 203.564 495.829C206.013 498.506 207.27 504.631 207.27 504.631Z" fill="#5083CD"/>
<path d="M203.284 498.96C203.427 499.609 207.194 517.647 207.194 517.647C198.015 521.991 191.049 518.202 191.049 518.202C191.049 518.202 191.465 506.092 191.006 504.409C190.702 503.296 189.617 495.968 190.437 495.727C191.489 495.416 193.08 494.959 194.406 494.785C195.538 494.637 199.955 494.401 200.758 494.602C200.758 494.602 202.683 496.23 203.284 498.96Z" fill="#E9FBFB"/>
<path d="M200.105 481.749C200.105 481.749 203.808 481.721 203.486 484.404C203.486 484.404 206.236 485.357 204.387 487.52C204.387 487.52 206.333 489.869 202.911 492.094C202.911 492.094 201.988 495.229 198.135 493.706C198.135 493.706 196.989 494.446 195.415 493.439C193.84 492.432 193.638 491.84 193.638 491.84C193.638 491.84 190.147 491.241 190.643 488.429C190.643 488.429 188.816 487.049 191.596 485.343C191.596 485.343 191.567 481.484 195.309 482.024C195.309 482.024 197.513 479.091 200.105 481.749Z" fill="#8A99AA"/>
<path d="M194.268 488.039C194.164 488.723 193.651 489.227 193.123 489.165C192.594 489.102 192.251 488.497 192.355 487.813C192.459 487.129 192.972 486.625 193.5 486.687C194.028 486.749 194.372 487.354 194.268 488.039Z" fill="#F6A390"/>
<path d="M202.944 490.179C202.616 490.806 201.957 491.157 201.472 490.962C200.988 490.767 200.861 490.101 201.189 489.473C201.518 488.846 202.177 488.496 202.661 488.69C203.145 488.885 203.272 489.552 202.944 490.179Z" fill="#F6A390"/>
<path d="M198.471 492.24C198.466 492.288 198.771 494.053 198.932 494.987C198.993 495.335 198.763 495.67 198.386 495.791C197.376 496.111 195.41 496.52 194.181 495.376C194.069 495.272 194.016 495.129 194.035 494.986L194.57 490.862L198.471 492.24Z" fill="#F6A390"/>
<path d="M198.765 494.018C197.692 494.4 194.601 494.047 194.378 492.34L194.57 490.862L198.47 492.24C198.468 492.263 198.673 493.479 198.765 494.018Z" fill="#F48B7E"/>
<path d="M199.517 483.842C199.517 483.842 197.89 483.524 196.328 484.362C194.767 485.199 192.223 488.513 194.319 491.417C196.414 494.321 200.01 492.925 201.286 490.641C202.561 488.357 203.117 484.95 199.517 483.842Z" fill="#F6A390"/>
<path d="M198.474 490.992L196.307 490.871C196.307 490.871 196.305 491.594 197.257 491.672C198.417 491.766 198.474 490.992 198.474 490.992Z" fill="white"/>
<path d="M202.293 485.48C202.293 485.48 200.718 484.731 199.542 484.822C198.365 484.912 194.52 487.331 193.964 486.919C193.409 486.508 194.14 484.354 194.586 484.044C195.032 483.733 196.814 482.801 196.966 482.785C197.118 482.768 198.729 482.803 199.005 482.866C199.28 482.93 201.269 483.774 201.269 483.774L202.293 485.48Z" fill="#8A99AA"/>
<path d="M179.172 519.125C179.206 519.042 179.287 519.039 179.37 519.035C180.179 518.995 180.986 518.946 181.785 518.823C181.918 518.803 182.049 518.773 182.171 518.728C182.392 518.645 182.612 518.642 182.839 518.692C182.962 518.718 183.086 518.721 183.212 518.718C183.619 518.707 184.769 518.336 185.362 518.232C185.497 518.208 185.603 518.116 185.633 517.998C186.158 515.954 187.277 511.369 187.395 509.867C187.546 507.946 188.795 499.274 188.795 499.274L192.868 500.172C192.868 500.172 191.397 506.586 191.031 509.689C190.748 512.084 188.177 517.211 187.367 518.686C186.982 519.78 186.047 519.831 185.83 519.859C185.706 519.875 185.593 519.931 185.514 520.016C185.371 520.17 185.206 520.305 185.016 520.416C184.875 520.498 184.767 520.604 184.677 520.727C184.511 520.95 184.365 521.183 184.22 521.416C184.124 521.571 184.02 521.622 183.869 521.589C183.708 521.554 183.628 521.452 183.625 521.281C183.622 521.028 183.708 520.797 183.846 520.578C183.976 520.373 183.962 520.256 183.798 520.073C183.704 519.969 183.608 519.867 183.486 519.784C183.362 519.701 183.232 519.638 183.068 519.662C182.78 519.732 182.488 519.79 182.191 519.825L181.948 519.874C181.939 519.876 181.815 519.902 181.815 519.902C181.795 519.907 181.365 519.958 181.218 519.961C181.1 519.964 180.909 519.975 180.745 519.986C180.598 519.995 180.284 519.934 180.274 519.934C180.13 519.935 180.001 519.892 179.892 519.81C179.847 519.777 179.804 519.739 179.824 519.68C179.843 519.625 179.891 519.601 179.953 519.59C180.05 519.573 180.55 519.508 180.544 519.49C180.395 519.493 179.928 519.494 179.778 519.494C179.577 519.493 179.401 519.434 179.259 519.307C179.202 519.257 179.138 519.207 179.172 519.125Z" fill="#F6A390"/>
<path d="M186.037 504.482L191.93 507.016C191.93 507.016 192.879 503.222 193.585 500.878C194.191 498.862 191.267 495.253 190.284 495.739C188.084 496.827 186.037 504.482 186.037 504.482Z" fill="#5083CD"/>
<path d="M226.001 498.012L278.523 500.262C278.523 500.262 273.867 513.66 273.75 514.329C273.634 514.999 256.349 523.14 252.017 523.017C247.686 522.894 237.601 519.663 235.43 519.091C233.259 518.519 227.634 514.63 227.986 512.259C228.338 509.887 226.001 498.012 226.001 498.012Z" fill="#1D87E4"/>
<path d="M241.082 504.906L226.986 504.828C226.638 504.826 226.357 504.577 226.359 504.272L226.365 503.206C226.367 502.902 226.651 502.656 226.998 502.658L241.094 502.736C241.442 502.738 241.723 502.987 241.721 503.292L241.715 504.358C241.713 504.663 241.43 504.908 241.082 504.906Z" fill="#156BB6"/>
<path d="M247.325 479.311L254.429 481.915L254.028 480.63L251.381 479.333C251.381 479.333 249.21 478.951 248.998 478.851C248.787 478.751 247.325 479.311 247.325 479.311Z" fill="#1D87E4"/>
<path d="M281.166 495.916L225.619 491.441L225.601 494.697C225.591 496.54 227.197 498.063 229.239 498.147L278.454 500.154C279.584 500.2 280.693 499.759 281.346 498.927C281.907 498.211 282.158 497.201 281.166 495.916Z" fill="#C4DDF9"/>
<path d="M225.62 491.44L225.623 490.973L280.969 495.674L281.167 495.915L225.62 491.44Z" fill="#C4DDF9"/>
<path d="M238.374 498.52L243.438 498.727L247.626 493.215L242.707 492.819L238.374 498.52Z" fill="white"/>
<path d="M247.356 498.886L251.432 493.521L249.562 493.371L245.431 498.807L247.356 498.886Z" fill="white"/>
<path d="M150.305 497.765L213.775 498.669L214.246 516.287C214.246 516.287 206.778 525.69 205.884 525.586C204.99 525.482 186.047 522.706 184.345 522.795C182.642 522.885 167.817 516.416 167.115 516.54C166.413 516.663 161.794 514.461 161.794 514.461L154.273 509.751L146.828 502.966L150.305 497.765Z" fill="#1D87E4"/>
<path d="M163.118 503.384L149.023 503.306C148.675 503.304 148.394 503.056 148.395 502.751L148.401 501.684C148.403 501.38 148.687 501.134 149.035 501.136L163.13 501.215C163.478 501.217 163.759 501.465 163.757 501.77L163.751 502.836C163.75 503.141 163.466 503.386 163.118 503.384Z" fill="#156BB6"/>
<path d="M172.613 485.112L170.414 485.47C170.414 485.47 170.621 486.193 171.593 486.06C172.779 485.898 172.613 485.112 172.613 485.112Z" fill="white"/>
<path d="M165.819 483.232C165.819 483.232 170.789 481.271 171.297 478.158C171.806 475.045 167.223 477.995 167.223 477.995L165.367 479.537L165.819 483.232Z" fill="#1A1A1A"/>
<path d="M227.386 497.627C227.386 497.627 228.306 498.189 229.473 498.157C229.473 498.157 227.919 498.564 227.873 498.531C227.828 498.498 227.048 497.943 227.061 497.932C227.073 497.921 227.386 497.627 227.386 497.627Z" fill="#1D87E4"/>
<path d="M232.283 477.535L238.487 477.914C238.487 477.914 237.478 476.435 237.048 476.433L233.778 476.415L232.283 477.535Z" fill="#1D87E4"/>
<path d="M20.1604 263.757C19.7182 263.919 19.3645 263.788 18.9855 263.51C19.3694 264.007 19.7191 264.461 20.0687 264.914C20.0487 264.937 20.0288 264.96 20.0088 264.984C19.5045 264.91 19.1615 264.512 18.7544 264.15C19.0243 264.702 19.3568 265.17 19.4723 265.833C18.8992 265.49 18.5608 264.972 18.193 264.387C18.4165 265.037 18.6863 265.588 18.71 266.297C18.1943 265.864 17.9419 265.299 17.6533 264.71C17.6969 265.25 17.8987 265.737 17.8299 266.251C17.8017 266.267 17.7736 266.284 17.7454 266.3C17.536 265.98 17.3266 265.66 17.1269 265.355C17.104 265.464 17.0751 265.601 17.0332 265.8C16.8112 265.622 16.6371 265.483 16.4546 265.337C16.4204 265.355 16.3549 265.42 16.3205 265.403C15.9632 265.231 15.611 265.046 15.2015 264.835C14.9417 264.929 14.8126 264.843 14.73 264.418C14.5285 264.546 14.3227 264.685 14.1336 264.426C13.751 264.623 13.6967 264.613 13.5785 264.363C13.4272 264.361 13.2171 264.419 13.171 264.346C13.0344 264.13 12.5873 264.505 12.6559 264.025C12.4068 263.857 12.0957 263.889 11.897 263.595C11.619 263.63 11.619 263.63 11.5446 263.382C11.3838 263.384 11.1622 263.493 11.1706 263.158C10.7997 263.16 10.7997 263.16 10.8499 262.841C10.727 262.846 10.6036 262.851 10.4334 262.858C10.4728 262.7 10.5027 262.58 10.5345 262.453C10.4064 262.469 10.265 262.487 10.1101 262.507C10.1086 262.404 10.1076 262.331 10.1063 262.241C10.0259 262.236 9.94431 262.232 9.84065 262.226C9.85496 262.129 9.86765 262.042 9.87373 262.001C9.78743 261.927 9.71632 261.866 9.61229 261.777C9.60046 261.794 9.54231 261.853 9.51347 261.926C9.23697 262.628 8.96537 263.333 8.69243 264.036C8.68566 264.054 8.6827 264.075 8.67159 264.088C8.57121 264.201 8.46641 264.406 8.36879 264.402C8.25713 264.397 8.15151 264.207 8.01724 264.071C7.75056 264.185 7.56601 264.141 7.44147 263.913C7.26025 263.937 7.09166 263.959 6.9187 263.982C6.88933 263.841 6.86897 263.743 6.8442 263.623C6.77021 263.655 6.70454 263.703 6.63585 263.709C6.5414 263.718 6.38405 263.732 6.35937 263.68C6.24909 263.447 6.07616 263.365 5.8676 263.311C5.84586 263.306 5.82415 263.134 5.8546 263.071C5.92955 262.917 6.0349 262.782 6.14566 262.611C5.91871 262.706 5.68242 262.945 5.50383 262.682C5.42592 262.567 5.5274 262.299 5.54746 262.1C5.46466 262.091 5.31569 262.074 5.10539 262.051C5.1342 261.858 5.16049 261.682 5.19232 261.469C5.15702 261.448 5.07931 261.4 4.96765 261.331C5.03556 261.168 5.10291 261.007 5.17139 260.844C4.92043 260.633 4.94133 260.511 5.29841 260.19C5.17678 260.062 5.05383 259.933 4.9348 259.809C5.03442 259.569 5.19978 259.562 5.3742 259.563C5.78726 259.566 6.20031 259.562 6.61336 259.558C6.69184 259.557 6.77021 259.54 6.86498 259.481C6.65693 259.457 6.43489 259.478 6.45807 259.13C6.15198 259.227 6.07658 259.05 6.09005 258.78C5.98094 258.779 5.85403 258.82 5.78681 258.766C5.72395 258.716 5.72431 258.566 5.69101 258.437C5.40034 258.558 5.36983 258.342 5.38855 258.075C5.22622 258.093 5.03826 258.183 5.06658 257.859C5.07057 257.813 4.92833 257.751 4.88791 257.666C4.81951 257.571 4.73333 257.486 4.68797 257.379C4.647 257.282 4.6506 257.162 4.63137 257.03C4.49686 256.939 4.32004 256.836 4.1643 256.703C4.12295 256.667 4.14645 256.536 4.13918 256.435C3.90576 256.28 3.906 256.248 4.1714 255.859C4.08573 255.877 4.00736 255.913 3.9334 255.903C3.87815 255.897 3.78299 255.831 3.78398 255.794C3.78961 255.585 3.81889 255.377 3.84042 255.166C3.76397 255.152 3.63554 255.166 3.55661 255.102C3.48298 255.043 3.46198 254.901 3.39015 254.73C3.28513 254.681 3.06145 254.629 3.17446 254.325C2.94113 254.118 2.71113 253.914 2.42058 253.656C2.69517 253.569 2.94925 253.489 3.20294 253.409C2.83624 253.344 2.46684 253.278 2.09745 253.212C2.09254 253.184 2.0876 253.156 2.08266 253.129C2.24924 253.076 2.41366 253.01 2.58309 252.975C2.75647 252.939 2.93446 252.928 3.11086 252.915C3.29301 252.901 3.47582 252.897 3.65824 252.852C3.08921 252.766 2.5202 252.681 1.95117 252.595C2.48694 252.282 3.05468 252.369 3.62344 252.342C3.1591 252.208 2.69472 252.075 2.23037 251.941C2.54784 251.754 2.87699 251.785 3.20186 251.83C3.52427 251.874 3.84351 251.947 4.14205 252.004C3.5917 251.715 3.0209 251.416 2.4501 251.117C2.45987 251.085 2.4696 251.053 2.47936 251.022C3.19383 250.992 3.82386 251.374 4.49201 251.595C4.00392 251.159 3.45695 250.805 3.07831 250.223C3.87031 250.464 4.51285 251.023 5.22319 251.452C4.91986 251.108 4.61646 250.764 4.31309 250.42C4.32753 250.396 4.34196 250.372 4.35639 250.349C4.41323 250.367 4.47776 250.372 4.52555 250.406C4.88755 250.665 5.26041 250.908 5.60328 251.196C6.55497 251.996 7.50124 252.804 8.43221 253.634C8.65488 253.832 8.84505 254.104 8.98906 254.382C9.48994 255.348 10.0893 256.223 10.8268 256.972C11.2441 257.396 12.0744 257.456 12.59 257.179C12.7812 257.076 13.0051 257.027 13.2183 257.004C13.5136 256.972 13.6077 257.077 13.6721 257.38C13.5774 257.478 13.4778 257.545 13.4237 257.644C13.2741 257.916 13.1555 258.211 13.0004 258.479C12.9202 258.618 12.9377 258.707 13.038 258.789C13.2412 258.957 13.4414 259.133 13.6584 259.275C14.4452 259.792 15.2418 260.28 16.1025 260.64C16.5309 260.82 16.9062 261.156 17.31 261.413C17.8384 261.748 18.3695 262.079 18.9029 262.404C19.185 262.576 19.4746 262.733 19.7608 262.896C19.7794 262.875 19.798 262.853 19.8166 262.831C19.5344 262.858 19.2522 262.885 18.9742 262.911C19.3428 263.174 19.7354 263.454 20.1604 263.757Z" fill="white"/>
<path d="M231.704 208.222C231.722 208.205 231.741 208.188 231.758 208.171C231.791 208.165 231.825 208.158 231.911 208.141C231.397 208.769 230.778 209.203 230.175 209.654C230.189 209.673 230.202 209.691 230.216 209.71C230.893 209.269 231.57 208.829 232.246 208.388C231.828 209.012 231.132 209.281 230.556 209.702C230.564 209.715 230.571 209.728 230.578 209.741C231.267 209.431 231.957 209.12 232.646 208.81C232.653 208.824 232.66 208.838 232.668 208.852C232.17 209.266 231.552 209.474 231.004 209.811C231.485 209.672 231.966 209.534 232.447 209.395C232.454 209.416 232.462 209.437 232.469 209.458C232.104 209.618 231.738 209.778 231.373 209.938C231.377 209.953 231.381 209.968 231.385 209.983C231.594 209.943 231.802 209.904 232.01 209.864C232.02 209.884 232.029 209.903 232.038 209.923C231.927 209.998 231.812 210.069 231.708 210.153C231.666 210.187 231.653 210.254 231.619 210.301C231.572 210.368 231.523 210.436 231.466 210.495C231.411 210.551 231.344 210.596 231.265 210.659C231.432 210.728 231.392 210.798 231.282 210.874C231.167 210.954 231.017 211.011 231.046 211.201C231.05 211.226 231.01 211.269 230.98 211.284C230.786 211.38 230.645 211.534 230.508 211.695C230.385 211.84 230.263 211.986 230.135 212.126C230.101 212.164 230.047 212.187 229.999 212.209C229.905 212.253 229.806 212.286 229.714 212.332C229.307 212.537 228.902 212.748 228.494 212.952C228.309 213.044 228.118 213.124 227.933 213.217C227.887 213.241 227.86 213.302 227.815 213.328C227.739 213.37 227.656 213.399 227.575 213.43C227.533 213.447 227.488 213.457 227.444 213.469C227.352 213.495 227.26 213.52 227.161 213.521C227.049 213.627 226.941 213.749 226.755 213.654C226.511 214.009 226.094 213.866 225.773 214.045C225.81 214.242 225.595 214.25 225.433 214.369C225.505 214.407 225.553 214.454 225.604 214.456C226.272 214.491 226.94 214.519 227.608 214.551C227.714 214.556 227.819 214.577 227.925 214.591C227.938 214.617 227.952 214.643 227.966 214.669C227.888 214.725 227.81 214.781 227.752 214.822C227.809 214.919 227.92 215.028 227.9 215.097C227.872 215.191 227.743 215.255 227.656 215.331C227.872 215.672 227.872 215.672 227.619 215.883C227.737 216.191 227.729 216.2 227.276 216.293C227.254 216.394 227.259 216.541 227.211 216.561C227.104 216.606 226.967 216.604 226.847 216.59C226.764 216.579 226.687 216.516 226.584 216.465C226.624 216.593 226.66 216.689 226.682 216.789C226.709 216.906 226.648 216.952 226.533 216.966C226.46 216.975 226.392 217.024 226.319 217.047C226.269 217.062 226.215 217.066 226.162 217.07C226.134 217.072 226.105 217.057 226.077 217.06C225.745 217.091 225.745 217.091 225.53 216.939C225.149 217.384 224.925 216.86 224.605 216.792C224.678 216.91 224.75 217.019 224.811 217.134C224.825 217.161 224.815 217.232 224.794 217.243C224.713 217.287 224.618 217.352 224.538 217.341C224.378 217.32 224.261 217.216 224.22 217.047C224.202 216.977 224.18 216.909 224.159 216.84C223.763 216.929 223.63 216.825 223.612 216.427C223.61 216.39 223.609 216.354 223.609 216.317C223.609 216.151 223.658 215.966 223.598 215.826C223.542 215.694 223.372 215.611 223.219 215.477C223.157 215.545 223.1 215.622 223.028 215.683C222.984 215.72 222.919 215.731 222.863 215.755C222.587 215.87 222.31 215.982 222.036 216.101C221.748 216.226 221.463 216.356 221.177 216.487C221.144 216.502 221.114 216.53 221.088 216.557C221.069 216.579 221.066 216.624 221.044 216.634C220.799 216.744 220.552 216.851 220.304 216.955C220.217 216.991 220.128 217.022 220.037 217.044C219.825 217.096 219.611 217.143 219.398 217.19C219.363 217.198 219.301 217.182 219.292 217.199C219.133 217.497 218.765 217.417 218.544 217.611C218.483 217.665 218.345 217.63 218.243 217.638C218.193 217.643 218.14 217.646 218.094 217.665C217.924 217.734 217.775 217.883 217.562 217.791C217.534 217.779 217.478 217.829 217.436 217.854C217.292 217.939 217.148 218.025 216.959 218.138C216.967 217.994 216.971 217.909 216.978 217.792C216.712 218.018 216.468 218.225 216.224 218.432C216.209 218.421 216.194 218.409 216.178 218.397C216.315 218.15 216.451 217.902 216.587 217.654C216.573 217.645 216.559 217.637 216.544 217.628C216.159 217.954 215.774 218.281 215.389 218.607C215.368 218.586 215.347 218.565 215.326 218.544C215.628 218.203 215.93 217.863 216.231 217.522C216.224 217.514 216.216 217.505 216.208 217.497C215.715 217.844 215.222 218.191 214.729 218.538C214.713 218.517 214.697 218.496 214.681 218.475C215.11 218.123 215.539 217.771 215.967 217.42C215.957 217.406 215.946 217.392 215.936 217.378C215.403 217.714 214.9 218.104 214.286 218.295C214.815 217.956 215.344 217.616 215.873 217.277C215.865 217.263 215.857 217.249 215.849 217.235C215.269 217.516 214.69 217.796 214.111 218.077C214.098 218.053 214.085 218.029 214.072 218.005C215.216 217.55 216.233 216.887 217.191 216.124C217.127 216.139 217.063 216.156 216.999 216.169C216.94 216.18 216.88 216.187 216.806 216.156C216.917 216.107 217.033 216.066 217.139 216.007C217.552 215.776 217.961 215.538 218.374 215.308C218.508 215.233 218.646 215.164 218.79 215.112C219.414 214.889 220.04 214.669 220.667 214.456C220.987 214.347 221.315 214.265 221.634 214.155C221.892 214.065 221.908 214.014 221.925 213.739C221.929 213.668 221.987 213.585 222.045 213.537C222.102 213.49 222.191 213.459 222.266 213.459C222.689 213.463 223.034 213.182 223.445 213.146C223.451 213.145 223.456 213.139 223.462 213.139C224.038 213.092 224.486 212.774 224.958 212.478C225.334 212.242 225.78 212.12 226.172 211.904C226.534 211.704 226.872 211.456 227.208 211.213C227.46 211.031 227.692 210.823 227.933 210.626C227.945 210.657 227.965 210.711 227.981 210.753C228.85 210.461 229.287 209.788 229.553 208.965C229.601 208.814 229.654 208.664 229.712 208.495C229.839 208.818 229.703 209.171 229.117 210.064C229.179 210.031 229.214 210.019 229.241 209.997C229.87 209.477 230.376 208.858 230.737 208.123C230.787 208.022 230.858 207.93 230.919 207.834C230.923 208.179 230.813 208.49 230.595 208.75C230.328 209.069 230.04 209.37 229.761 209.68C229.733 209.711 229.707 209.744 229.68 209.776C230.429 209.345 231.052 208.766 231.704 208.222Z" fill="white"/>
</g>
<defs>
<clipPath id="clip0_1433_79227">
<rect width="1240" height="560" fill="white"/>
</clipPath>
</defs>
</svg>
