<svg width="20" height="20" viewBox="0 0 20 20" fill="none" xmlns="http://www.w3.org/2000/svg">
<g clip-path="url(#clip0_1685_32232)">
<path d="M9.23072 1.84324C9.22745 1.60138 9.27346 1.36138 9.36595 1.13788C9.45845 0.914378 9.59549 0.712054 9.76872 0.543239C9.93727 0.367935 10.1401 0.229245 10.3647 0.135821C10.5892 0.0423964 10.8306 -0.0037572 11.0737 0.000239013C11.6104 0.000239013 12.0566 0.174906 12.4122 0.524239C12.7679 0.873572 12.9457 1.31324 12.9457 1.84324C12.9508 2.0901 12.9052 2.33539 12.8118 2.56396C12.7184 2.79254 12.5792 2.99955 12.4027 3.17224C12.23 3.34865 12.023 3.48784 11.7944 3.58122C11.5658 3.67461 11.3206 3.72022 11.0737 3.71524C10.83 3.71888 10.5881 3.67187 10.3635 3.5772C10.1389 3.48253 9.93633 3.34225 9.76872 3.16524C9.59455 2.99254 9.4571 2.7864 9.36464 2.55921C9.27219 2.33202 9.22663 2.08848 9.23072 1.84324Z" fill="white"/>
<path d="M4.55022 11.7945C4.32472 11.8265 4.13822 11.855 3.96922 11.9445C3.80548 12.0198 3.665 12.1377 3.56252 12.2859C3.46003 12.4342 3.39931 12.6072 3.38672 12.787L4.05872 17.9285L4.22322 19.2285C4.22958 19.3122 4.24534 19.3949 4.27022 19.475C4.29045 19.5395 4.3201 19.6007 4.35822 19.6565C4.43459 19.7689 4.54023 19.8583 4.66372 19.915C4.79433 19.9746 4.93663 20.0042 5.08017 20.0016C5.22371 19.999 5.36484 19.9643 5.49322 19.9C5.74322 19.7695 5.89322 19.5435 5.89622 19.2825L5.34572 14.15L5.28622 13.6L5.84172 13.541L9.04422 13.2L9.84422 13.12C10.0684 13.1012 10.2897 13.0566 10.5037 12.987C10.8887 12.851 11.0952 12.6285 11.2407 12.2095C11.3722 11.8185 11.4347 11.2325 11.5437 10.7185L11.8262 9.1325L12.3917 5.96L12.5337 5.1795C12.574 4.96991 12.5758 4.75475 12.5392 4.5445C12.5278 4.46777 12.4998 4.39446 12.4572 4.32969C12.4145 4.26491 12.3582 4.21024 12.2922 4.1695C12.1567 4.085 11.9422 4.0435 11.7142 4.0385C10.7642 4.0235 9.76422 4.42 9.13822 5.181C8.81583 5.56139 8.58278 6.0092 8.45622 6.4915C8.39795 6.7511 8.35488 7.01388 8.32722 7.2785L8.21822 8.093L7.78072 11.2575C6.92422 11.4575 6.05672 11.5605 5.19422 11.6975L4.55022 11.7945Z" fill="white"/>
<path d="M16.6156 4.5083H13.8601L13.5556 6.4313L13.5326 6.5718L13.3286 7.8218C13.0761 9.3778 12.8141 10.9873 12.5391 12.5718C12.3656 13.5718 11.6141 14.2673 10.5781 14.3853C10.0386 14.4468 9.36157 14.5223 6.95557 14.5898L7.60007 17.3443C9.52657 17.3353 10.5251 17.1548 10.7641 17.1193C13.2171 16.7508 14.7911 15.3923 15.1961 13.2938C15.5406 11.5123 15.8221 9.6938 16.0991 7.9043C16.1911 7.3073 16.2831 6.7098 16.3791 6.1118C16.3831 6.0853 16.3816 6.0618 16.3846 6.0333L16.6156 4.5083Z" fill="white"/>
</g>
<defs>
<clipPath id="clip0_1685_32232">
<rect width="20" height="20" fill="white"/>
</clipPath>
</defs>
</svg>
